/* XPM */
static char *bdb2416fc943449ce7f5034039bb774akF8oJAiWuxkhVCz4[] = {
/* columns rows colors chars-per-pixel */
"80 80 219 2 ",
"   c #010101",
".  c #060508",
"X  c #0B0B0B",
"o  c #091105",
"O  c #0B1709",
"+  c #121409",
"@  c #0B0213",
"#  c #171616",
"$  c #2B0816",
"%  c #2C0E19",
"&  c #310F18",
"*  c #12250D",
"=  c #1A2A0E",
"-  c #162910",
";  c #1A3515",
":  c #1D3B15",
">  c #2F221F",
",  c #223E14",
"<  c #283A1D",
"1  c #18042B",
"2  c #1E0538",
"3  c #361522",
"4  c #21083B",
"5  c #222223",
"6  c #2A2B2A",
"7  c #383838",
"8  c #41081B",
"9  c #680D2B",
"0  c #721833",
"q  c #5F2130",
"w  c #1E431A",
"e  c #244114",
"r  c #264517",
"t  c #2C551D",
"y  c #315C1E",
"u  c #3C631C",
"i  c #30482E",
"p  c #285420",
"a  c #2A5C23",
"s  c #345D27",
"d  c #2F6325",
"f  c #386825",
"g  c #397A2E",
"h  c #4B721B",
"j  c #415434",
"k  c #427225",
"l  c #636637",
"z  c #29074C",
"x  c #330C5A",
"c  c #360862",
"v  c #390962",
"b  c #3F1B67",
"n  c #4F1144",
"m  c #5C2E4B",
"M  c #440B7D",
"N  c #411370",
"B  c #48147B",
"V  c #454545",
"C  c #4C4C4C",
"Z  c #4F564B",
"A  c #525252",
"S  c #5A5C59",
"D  c #695D74",
"F  c #676767",
"G  c #6C6C6C",
"H  c #70746E",
"J  c #737472",
"K  c #7B7B7B",
"L  c #8A163C",
"P  c #A81646",
"I  c #B3174B",
"U  c #B4194D",
"Y  c #A4155C",
"T  c #B61E51",
"R  c #A9284F",
"E  c #B82959",
"W  c #AA375D",
"Q  c #BB315E",
"!  c #8E1471",
"~  c #AA1963",
"^  c #AC3862",
"/  c #BD3562",
"(  c #BE3965",
")  c #BF3E69",
"_  c #B02873",
"`  c #BB3C76",
"'  c #C03E67",
"]  c #C03E6A",
"[  c #865043",
"{  c #AA5F7B",
"}  c #C1426B",
"|  c #C34871",
" . c #C9597E",
".. c #3E8A36",
"X. c #44852D",
"o. c #4B9635",
"O. c #469D3E",
"+. c #4A9C3A",
"@. c #549031",
"#. c #529C35",
"$. c #47A13F",
"%. c #4BA43F",
"&. c #4FA83F",
"*. c #57A435",
"=. c #51A73D",
"-. c #54AB3E",
";. c #5AAD3C",
":. c #57B03D",
">. c #5CB33D",
",. c #5FB93C",
"<. c #71B32E",
"1. c #6AAB35",
"2. c #61AE3B",
"3. c #65B337",
"4. c #6BB636",
"5. c #6DBB36",
"6. c #63B33B",
"7. c #6BB53A",
"8. c #62BB3C",
"9. c #6BBB3A",
"0. c #71B136",
"q. c #73BC35",
"w. c #7ABD35",
"e. c #71B739",
"r. c #74B939",
"t. c #78BA38",
"y. c #7EC32F",
"u. c #6FC136",
"i. c #65C03A",
"p. c #6BC138",
"a. c #74C135",
"s. c #7CC332",
"d. c #3E9A40",
"f. c #439E40",
"g. c #738841",
"h. c #46A140",
"j. c #49A240",
"k. c #4FA840",
"l. c #56A640",
"z. c #54AC40",
"x. c #59B040",
"c. c #83C62E",
"v. c #85C82E",
"b. c #8DCB2F",
"n. c #82C631",
"m. c #83C832",
"M. c #8AC930",
"N. c #470B83",
"B. c #550D99",
"V. c #571A94",
"C. c #6A109C",
"Z. c #59258B",
"A. c #590EA4",
"S. c #5D0FAB",
"D. c #5E12AB",
"F. c #6310A5",
"G. c #6714B8",
"H. c #7021AB",
"J. c #711AC8",
"K. c #761CD0",
"L. c #7E25D5",
"P. c #A61E8A",
"I. c #9A2D9E",
"U. c #B2328B",
"Y. c #A629AF",
"T. c #A935B8",
"R. c #B96380",
"E. c #C0549B",
"W. c #CC6386",
"Q. c #D37897",
"!. c #9428D2",
"~. c #A534CA",
"^. c #A131DA",
"/. c #8825E7",
"(. c #9C2EEA",
"). c #9E30E0",
"_. c #8D27F1",
"`. c #8E29F1",
"'. c #922BF6",
"]. c #992CF5",
"[. c #962CFE",
"{. c #982FFE",
"}. c #9C36FB",
"|. c #9933FF",
" X c #A337E2",
".X c #AE48CF",
"XX c #A945E4",
"oX c #A243FF",
"OX c #A54BFE",
"+X c #A84FFF",
"@X c #AA55FE",
"#X c #B369FD",
"$X c #B974FD",
"%X c #858585",
"&X c #8C8C8C",
"*X c #929292",
"=X c #9B9B9B",
"-X c #B18F9B",
";X c #A2A2A2",
":X c #AAAAAA",
">X c #B4B4B4",
",X c #BABABA",
"<X c #DC94AD",
"1X c #DE99B2",
"2X c #E9BACB",
"3X c #C185FD",
"4X c #CB98FC",
"5X c #D5ADFB",
"6X c #D3A9FC",
"7X c #C9C9C9",
"8X c #EBC0D0",
"9X c #DFC2FB",
"0X c #E3CCFB",
"qX c #EAD9FB",
"wX c #EEE2FB",
"eX c #F4EDFA",
"rX c #F5F5F5",
"tX c #F6F1FA",
"yX c #FBFBFB",
/* pixels */
"h.%.>.8.8.,.8.,.k.h.j.j.h.h.j.f.;.y.v.5.%.O.-.,.8.:.j.%.%.$.$.;.,.,.:.h.j.>.,.,.=.$.&.q.v.w.-.$.&.>.8.8.8.8.:.j.j.h.j.f.j.f.%.2.m.c.4.$.%.;.,.,.z.h.$.%.O.%.:.8.",
"h.%.>.8.8.,.8.x.k.h.j.j.j.j.%.j.;.s.c.q.&.%.-.,.,.:.%.%.O.%.%.;.,.,.&.j.%.:.i.8.-.$.=.q.v.q.-.O.&.>.8.,.8.8.>.k.h.j.j.f.%.j.%.6.y.c.9.$.j.-.i.,.:.j.%.$.%.%.>.8.",
"j.j.-.:.-.;.>.x.-.j.-.;.2.2.2.2.6.u.a.9.;.;.>.,.8.,.-.:.>.4.4.;.:.-.&.&.&.9.a.a.5.4.4.3.3.3.=.$.%.-.:.:.>.>.z.z.k.-.2.2.2.2.2.4.s.u.8.x.:.,.,.,.>.;.:.>.4.6.;.-.",
"h.h.h.h.k.z.x.z.z.z.>.7.r.e.r.r.r.8.i.8.,.8.,.8.8.8.,.,.u.c.y.3.j.h.k.z.:.q.c.c.c.c.w.;.$.$.$.$.$.$.$.%.z.z.z.z.z.>.e.r.r.e.t.9.8.8.8.8.,.,.8.8.,.8.8.a.c.c.;.%.",
"$.h.O.f.k.l.x.z.z.z.;.e.t.t.r.r.r.8.8.i.8.8.8.8.8.8.8.i.a.c.c.3.f.f.z.z.:.q.c.v.m.c.s.;.O.$.%.$.$.$.O.%.-.z.z.z.z.6.r.q.t.t.t.9.8.8.8.8.8.8.8.8.8.8.8.s.v.y.;.%.",
";.;.-.-.-.;.;.x.z.z.x.9.e.e.r.r.e.8.8.x.,.>.,.8.8.8.8.8.9.a.q.6.;.-.x.x.>.9.r.w.s.n.w.2.&.=.-.-.;.-.=.;.;.>.;.l.z.x.e.e.9.e.e.9.8.8.x.,.,.,.,.8.8.8.8.u.q.q.>.*.",
"s.a.r.7.e.e.e.7.=.j.-.8.8.8.8.8.8.8.>.:.j.k.-.,.8.,.8.,.:.-.&.2.0.e.e.e.e.;.=.-.4.t.r.9.,.8.a.y.w.q.4.e.e.e.6.k.h.z.8.8.9.8.8.8.>.6.:.j.%.:.8.8.8.8.,.:.&.-.6.e.",
"c.c.w.t.t.r.t.7.=.f.z.x.8.8.8.8.8.x.6.x.j.h.-.,.8.8.8.8.;.h.$.2.r.r.t.t.e.*.%.%.3.r.r.8.,.5.s.v.y.w.r.r.t.t.7.k.f.z.6.8.8.8.8.8.8.x.;.h.h.:.8.8.8.8.,.&.$.%.2.t.",
"n.s.q.r.r.t.t.7.=.h.&.,.8.8.8.8.8.>.>.;.%.%.;.,.8.,.8.>.-.%.%.;.r.e.r.r.7.;.k.=.1.e.e.9.8.8.s.y.n.t.r.q.r.r.6.%.h.-.8.8.8.8.8.8.>.>.-.%.=.;.,.8.,.,.>.-.O.%.6.r.",
";.6.8.9.9.9.8.>.l.h.-.5.y.5.8.8.>.-.z.;.5.r.5.8.8.>.-.-.%.$.%.;.7.9.9.9.9.7.2.2.2.;.;.>.8.8.6.>.6.8.9.8.9.9.6.&.h.-.q.s.u.8.8.>.k.-.2.5.5.9.8.8.:.;.-.%.%.%.,.9.",
"%.%.>.,.,.8.8.,.k.h.;.s.v.s.p.8.>.%.%.;.y.c.a.8.8.:.%.j.j.j.$.:.8.8.,.8.9.9.t.7.;.j.k.:.8.>.-.$.k.>.,.8.,.8.>.j.j.;.c.v.s.i.8.:.j.%.2.c.c.a.8.,.;.h.j.j.f.%.>.,.",
"f.%.>.8.8.8.8.>.%.h.-.w.v.y.8.8.:.%.O.2.y.v.s.8.8.:.$.h.h.h.$.:.x.8.8.8.8.9.t.r.-.f.k.:.8.>.k.h.k.>.i.8.,.8.>.%.h.;.y.c.a.8.8.:.f.%.3.c.c.a.8.,.-.h.f.j.h.%.>.8.",
"j.k.-.;.:.:.:.:.&.%.;.9.a.5.>.:.-.;.;.6.w.s.r.>.:.>.>.2.;.-.-.:.x.,.,.8.8.9.9.7.2.;.l.;.:.;.%.j.j.:.:.:.:.:.;.k.%.;.5.q.9.:.:.>.;.;.7.s.w.5.:.>.:.>.;.;.-.-.;.:.",
"j.j.%.j.%.j.%.&.&.z.-.x.>.;.%.%.;.7.0.r.t.r.3.%.%.6.y.y.u.8.,.-.j.k.>.8.,.9.8.9.7.0.0.-.j.j.j.j.j.j.%.j.j.k.j.-.z.x.:.;.;.%.%.;.7.e.r.t.q.6.%.%.5.y.y.5.,.,.&.j.",
"h.$.f.h.f.h.f.j.k.x.z.z.-.-.$.$.-.e.t.t.t.t.2.%.$.3.c.c.a.8.8.-.j.j.:.8.8.8.8.8.r.t.e.-.h.h.h.j.$.$.h.h.f.f.j.z.z.z.z.z.z.f.$.;.t.t.r.t.t.;.$.$.5.v.v.u.8.8.-.h.",
"h.%.%.-.=.=.=.-.:.>.;.z.-.-.=.%.;.7.r.r.t.e.2.%.%.>.y.y.5.,.>.-.k.%.>.8.8.8.,.8.9.r.e.z.k.%.h.h.%.%.-.-.=.=.z.;.>.>.z.-.=.=.=.;.7.t.r.r.e.;.%.%.3.s.s.5.,.>.&.j.",
"h.%.4.q.q.7.6.7.q.s.5.-.j.-.2.7.7.7.9.9.9.8.x.j.$.:.8.5.,.&.&.-.-.-.5.w.s.6.l.z.,.5.8.3.:.;.k.f.=.4.q.q.4.7.7.t.s.4.-.%.;.2.7.7.8.9.9.9.8.x.j.j.>.u.9.>.-.=.z.-.",
"%.=.q.v.c.w.t.w.n.v.q.*.f.z.0.t.e.8.,.8.8.8.x.j.%.:.8.8.-.$.$.&.;.;.q.v.n.;.h.f.>.8.8.8.8.6.k.f.-.w.v.y.w.r.w.m.c.5.%.$.;.e.t.9.8.8.8.8.,.:.h.j.:.8.,.&.f.O.l.z.",
"f.=.r.n.n.t.t.t.n.v.q.-.f.-.7.t.9.8.8.8.8.8.>.k.%.&.,.,.:.%.%.&.-.-.<.w.<.*.f.+.-.;.;.>.,.-.f.d.-.q.v.y.t.r.r.c.v.q.%.$.;.0.r.9.8.8.8.8.8.x.h.j.:.,.,.-.%.%.z.z.",
"j.%.3.5.5.7.6.9.y.v.q.*.j.=.;.2.6.8.8.8.8.8.>.;.-.;.:.:.>.3.3.6.2.f , r e , : ; , , , , e , w d.=.6.5.5.6.6.r.c.c.r.=.$.k.2.2.6.8.8.8.8.8.>.:.-.;.;.:.>.6.6.6.6.",
"h.%.z.z.;.z.z.6.y.c.q.=.h.%.%.j.-.8.8.8.8.8.8.8.8.:.$.%.3.y.n.a.1.,                     .   X g %.-.;.;.-.-.8.c.c.r.%.j.f.=.k.-.,.8.8.8.8.8.8.,.-.%.%.5.n.n.w.t.",
"f.h.z.z.z.z.z.>.y.v.a.-.h.h.h.h.&.,.8.8.8.8.x.8.,.:.g a u h h h k m M b N N N b b N N N b b b i a d d d d f *.y.v.q.=.h.f.f.f.-.,.,.8.8.,.8.8.,.&.h.%.5.c.n.q.t.",
"&.-.;.:.:.z.z.;.5.w.5.;.%.k.k.k.-.>.>.8.9.p.p.i.,.:.p           @ V.'.'.'.'.'.'.'.'.'.'.`.[.L.4           O o.u.s.3.-.%.k.k.-.;.>.,.8.i.p.8.8.8.:.j.%.4.n.c.r.r.",
">.>.8.8.>.-.j.j.%.-.-.>.>.,.,.x.:.&.%.>.s.s.u.8.#.k i % % % % % 3 H.[.[.[.[.[.[.[.[.[.[.|. X!.n % % % % $ > f X.+.;.>.,.>.>.>.;.%.&.3.y.y.a.8.,.-.j.%.6.t.t.9.9.",
"8.8.8.8.,.k.f.h.h.h.k.>.8.8.8.8.>.%.$.;.c.c.s.*.e o q W W W W W ^ ~.[.[.[.[.[.[.[.[.[.[.^.U.` ^ W W W R P L % o d &.8.8.8.,.8.>.j.j.6.c.c.a.i.8.z.f.j.6.r.r.8.8.",
"8.8.8.8.,.z.j.j.j.j.-.>.8.8.8.,.:.%.$.;.y.y.4.@.< # 0 } ) ) ) ) ` ~.{.].{.{.[.{.[.[.].].~.| | | | | ) Q U L $ X d $.;.8.8.8.,.:.h.f.3.y.y.q.8.8.z.j.k.7.r.t.9.8.",
"i.p.i.i.8.x.z.x.-.z.;.>.8.>.>.:.z.h.O.&.9.#., r { -XR.| ) ) ' } ) .XoXoXoXoX{.[.[.{.~.U.E.1X1X1X1XW.) ) Q Q L L > ; u 6.>.>.>.%.f.f.-.9.5.8.i.8.8.:.x.9.9.9.6.>.",
"u.u.p.i.8.,.x.x.>.,.x.x.>.x.z.z.k.f...$.x.k + # ;X2XQ.} ' ' ' } ` .X+X+X+XOX|.[.[.[.T.) W.2X8X8X8XQ.' ' } Q T P 8   r >.:.-.-.%.d.f.j.x.:.,.i.i.i.i.i.i.i.8.,.x.",
"u.u.i.i.i.x.x.,.x.x.x.x.8.x.z.;.j.d.d.$.:.@.q 9 { <X .) ) ) ) Y.T.XX+X+X+XoX{.[.[.[.T.)  .2X8X8X2XQ.) ) ) ( T P 8   r ;.>.z.z.j.f.f.f.x.>.,.i.i.i.i.i.i.i.i.x.x.",
"8.9.u.u.u.p.i.i.8.8.>.x.x.x.x.x.z.j.h.&.x.g.R U Q Q ) ) ) ) U.).[.oX+X+X+XOX|.[.[.[.T.' W.2X8X8X8XQ.) ) ) ( T P 8   r *.x.:.-.z.j.j.l.x.>.,.i.i.,.>.>.8.p.9.9.,.",
";.:.u.s.s.s.s.a.8.8.,.:.z.:.x.x.,.x.x.#.k l R E ( ) ) ) ) Q ` (.[.}.oXOXoXoX{.[.[.[.T.)  .<X1X1X1XW.) ) ) ( E P 9 & j =.x.x.>.>.>.>.x.6.>.8.i.,.-.f.$.6.s.s.r.r.",
"k.;.r.m.m.m.m.s.5.8.,.-.-.x.>.8.,.x.,.f O 3 ^ } ' ' ) ) Q U ~ ).[.{.{.[.{.[.[.[.[.'.T.) ) } | | | ) ) ) ) ( I I P P [ l.x.6.,.,.>.,.,.,.,.8.i.8.&.d.d.3.s.a.t.t.",
"z.x.a.m.s.m.m.s.u.8.8.x.z.;.>.>.x.6.>.y   & W ] ] ] ' ] Q Y _ XXoX}.[.|.oXoX|.[.[.[.T.` ` ) ) ) ) ) ) ) ] ( T I I I [ @.+.x.;.x.x.>.,.8.,.8.i.i.z.f.f.7.n.s.r.r.",
"x.8.a.a.s.y.m.m.s.s.r.6.x.x.z.%.z.z.-.a   3 ^ ' ] ] E T P.!.XX5X0X#X[.#X0X5XoX[.[.[.].).~.` ) ] ) ) ) ) ] / T I I I 0 = r +.l.z.;.z.x.x.,.9.a.u.8.x.x.t.M.m.e.>.",
"i.i.p.u.a.s.c.c.c.v.s.8.>.:.%.f.j.-.=.t   3 W ' ] ' Q I P.(.OXqXeX$X|.3XtX0XOX[.|.[.[.[.^.` ] ) ) ) ) ] ] / T I I I 9   * ..f.%.&.-.x.>.,.9.s.s.9.6.6.s.b.M.9.x.",
"8.i.u.u.a.y.c.c.c.m.s.8.6.x.k.h.%.z.-.t   & U E T E P.Y..X6X6X3X3X4X6X4X3X3X6X4X+X[.[.[.(.~.T.` ) ) ) ) ] ' T I I I 9   * o.j.%.-.z.x.:.6.9.s.s.9.,.8.s.M.M.9.x.",
"u.u.a.s.s.a.q.a.a.s.u.:.z.-.-.z.-.:.;.a   $ P I I I Y.[.$XtXqXOX|.5XyX4X|.@XwXtX#X[.[.[.[.[.].U.] ) ] ] ] ' T I I I 9   * o.k.z.:.:.:.;.-.5.s.y.r.9.7.r.w.w.r.8.",
"m.m.m.m.y.8.,.3.8.8.,.&.h.k.:.>.>.8.8.y   $ ! ! P.P.!.[.$XtXqX+X|.5XyX6X[.@XwXtX#X[.[.[.[.[.].I._ _ E ' E E T I ~ ! n . * o.>.>.8.,.:.%.%.9.m.m.t.r.r.8.8.8.t.m.",
"m.m.m.M.c.9.,.,.,.8.:.%.h.k.x.6.,.8.,.y   1 B.F./.].].[.$XtXqX+X|.5XyX6X|.@XwXtX#X[.[.[.[.[._.G.D._ I I I I I I P.A.c . - #.8.8.8.8.:.$.%.6.m.v.s.t.t.7.8.8.t.m.",
"m.m.m.m.s.5.6.5.8.9.,.-.h.k.>.8.8.5.8.y   4 B.G._.[.[.[.#XqX5XOX}.4XqX4X[.OX9X0X@X[.[.[.[.[._.J.D.B Y Y Y Y Y Y C.A.c   * #.,.6.p.8.>.$.%.6.y.y.r.9.e.7.9.8.t.m.",
"m.m.m.m.n.n.s.s.s.s.q.*.h.k.>.8.9.s.w.u   1 B.G._.[.[.[.|.OXOX{.|.oXOXoX].|.OXOX}.[.[.[.'.[.'.G.S.A.C.C.C.C.C.C.A.S.c   - *.,.9.s.s.3.%.%.;.i.8.>.=.;.7.s.s.a.t.",
"m.m.m.c.c.m.n.n.m.v.a.-.f.-.,.8.u.s.c.u   1 B.D.L.[.'.[.[.[.].`.`.`.`.`.`.`.[.[.[.[.[.'.'.'._.J.S.S.S.S.S.S.S.S.A.B.x   * #.8.u.c.c.4.%.h.-.,.,.-.O.%.9.m.m.w.t.",
"M.c.c.c.n.s.s.m.c.v.w.-.h.&.>.,.9.s.c.u   . 2 z D.K./.[.[.[./.B x x x x x B /.[.[.[./.J.J.J.J.G.S.S.S.S.S.S.S.S.v 2 1   * *.8.u.c.y.4.%.%.;.,.,.;.h.k.7.m.s.t.r.",
"m.n.4.6.6.6.6.9.y.v.w.;.k.-.-.-.:.6.3.y       @ N.S.K.[.[.[.L.1           2 /.[.[.[.K.S.S.S.S.S.S.S.S.S.S.S.S.A.z       * o.;.>.6.6.2.2.;.:.;.-.6.4.9.r.p.p.5.9.",
"c.w.2.f.j.%.$.-.s.v.s.>.-.-.%.$.%.$.$.p       . z c B V.V.V.Z.D H H F G G D Z.V.J.L.J.S.S.S.S.S.S.N.c c c c c c 1       * ..h.h.j.%.;.r.r.;.O.%.4.c.c.u.9.8.8.8.",
"v.c.;.f.f.j.h.*.q.v.q.6.z.-.%.$.$.$.$.p               . . . 6 7XrXrXrXrXyX,X5 @ N.S.S.S.S.S.S.S.A.z                     * ..h.h.f.j.;.r.r.;.%.%.4.c.c.u.8.8.8.8.",
"c.w.;.f.f.-.z.;.q.n.q.;.&.&.&.&.%.%.$.f = +     + # .       6 7XyXyXyXyXyX7X5   x N.N.N.N.N.N.N.N.2       . + # .   o * r O.k.k.j.j.;.9.e.2.-.;.r.c.n.5.;.:.>.6.",
"t.t.;.f.-.2.e.r.t.t.7.-.h.-.>.,.:.%.$.*.*.g o X 7 V 5       7 7XyXyXyXyXyX7X5   @ @ @ @ @ @ @ @ @ .       X 7 V #   : ..+.:.>.:.h.h.;.8.9.7.4.e.s.c.y.6.k.k.k.=.",
"t.e.-.O.%.7.t.r.t.t.7.k.f.%.8.8.>.$.$.-.,.X.o X C S 6 # X   6 7XyXyXyXyXrX7X5                       . X X # A S 5   w O.-.,.6.>.j.j.:.,.8.5.r.t.s.m.n.;.f.f.k.f.",
"r.7.;.%.-.7.t.t.e.e.7.-.h.z.>.8.>.%.$.;.8.X.o + K =X%XJ C   5 7XyXyXyXyXyX7X5                     5 7 A G J =X=X7   w O.-.,.,.;.%.%.-.,.8.9.r.q.s.n.s.2.f.k.k.f.",
"9.9.r.5.5.9.8.9.9.9.,.x.k.z.-.&.-.>.>.,.i.X.o # &X,X:X=XG @ 6 7XrXrXrXrXyX7X#         .           7 S G =X;X>X:XV   w %.&.-.&.-.:.>.,.8.8.r.r.r.7.>.;.6.2.7.6.1.",
",.9.s.v.s.u.8.8.8.8.x.x.z.-.%.h.-.8.8.8.8.*.u f S S &X:X&XA S J K K K K K G S A A A A C A A A A A F J &X:X;XG S j u ..-.&.$.%.-.,.8.8.8.8.9.r.r.;.j.j.1.t.t.t.r.",
",.8.y.c.y.p.8.8.8.,.>.x.z.z.%.j.&.,.8.8.8.,.3.1.= . F ,X>X=X%X#   . .     5 &X=X=X=X=X=X=X=X=X=X=X=X=X;X,X;X5 . g >.;.z.-.$.$.-.,.8.8.,.8.9.t.r.;.O.%.2.t.r.r.r.",
";.,.p.s.a.i.,.,.>.:.;.-.%.%.%.j.-.5.q.8.:.;.6.2.t , S %X*X;X&XV 6 6 7 6 6 V &X=X=X=X=X=X=X=X=X;X;X;X;X=X%XJ i ; X.-.k.z.%.%.%.:.5.a.9.:.:.6.9.9.;.%.%.;.2.2.7.9.",
"%.%.>.8.8.8.8.>.&.%.%.j.j.%.f.j.;.y.c.5.&.%.-.8.2.#.r X V >X>X=X&X&X&X*X*X*X=X=X=X=X=X=X=X=X=X>X,X,X,X%X# - X.+.O.%.h.j.%.$.$.;.s.y.9.%.j.:.8.,.-.j.%.%.%.=.>.9.",
"$.%.>.8.8.8.i.,.&.h.h.f.h.j.j.f.;.y.v.r.%.$.-.8.3.-.p O i ;X=X*X&X=X;X;X=X;X;X;X;X=X;X=X=X;X;X;X;X;X;XJ - = +.k.$.O.$.$.$.$.$.3.c.c.4.j.h.:.i.,.-.f.f.f.f.%.>.8.",
"h.%.:.>.6.8.8.x.k.%.k.%.=.l.k.%.;.s.s.5.-.%.z.,.8.:.o...f 6 5 5 6 K >X>X>X>X>X>X>X>X>X>X>X>X;XC 6 6 6 i X.o.-.k.%.%.k.%.=.k.l.6.s.s.9.&.&.:.8.,.:.%.&.-.=.-.>.6.",
"h.j.&.l.-.x.x.x.-.&.x.6.1.7.1.7.9.u.9.8.,.>.,.8.8.,.:.,.k o     X J >X>X>X>X>X>X>X>X>X>X>X,X=X6       : ;.:.;.z.z.;.7.6.1.7.7.6.9.9.8.>.>.,.8.,.,.>.>.8.w.q.;.-.",
"j.h.j.h.j.z.z.z.z.z.:.e.t.t.r.r.r.8.8.8.8.8.8.8.8.8.8.8.1.h h f d V Z C C C A C C C C C C C C s d a a g =.z.z.z.z.6.e.t.t.t.t.9.8.8.8.8.,.8.8.8.8.8.8.s.c.y.;.O.",
"j.%.O.%.j.z.z.x.x.z.>.e.r.r.r.r.e.8.8.8.8.8.8.8.8.8.8.i.a.v.c.6.O.;                         o ..$.$.O.%.-.x.z.z.z.;.r.t.r.t.r.9.8.,.8.8.8.8.8.8.8.8.8.s.y.y.;.%.",
"4.3.6.2.6.6.6.2.z.j.x.9.9.9.9.9.9.8.,.x.:.;.:.8.8.8.8.8.8.6.7.6.2.f < r r e : e , r r e e e t #.3.6.;.2.6.7.x.l.k.x.9.9.7.9.9.9.,.,.x.;.:.>.8.8.8.8.8.8.7.3.2.2.",
"n.s.t.r.r.e.r.7.-.h.l.x.8.8.8.8.8.x.,.x.j.%.-.,.8.8.8.,.;.j.%.2.0.0.4.0.1.*.+.O.1.0.0.1.;.4.<.c.s.w.t.r.r.r.7.k.f.z.,.8.8.8.8.,.6.>.x.k.%.:.,.8.8.8.,.:.%.%.6.t.",
"v.n.w.t.t.t.t.7.=.h.z.x.8.8.8.8.8.6.>.z.j.h.-.,.8.,.8.,.;.h.j.2.t.t.t.t.0.;.h.k.7.t.q.8.8.p.y.v.c.w.r.t.t.r.7.=.f.z.x.i.8.8.8.8.>.8.-.$.$.-.8.8.8.,.,.-.O.%.3.r.",
"q.q.r.r.r.9.r.6.l.f.z.9.p.9.8.8.,.>.:.;.;.;.>.,.8.,.,.>.-.j.j.>.7.r.e.e.7.2.-.-.2.4.4.8.,.4.5.q.r.r.r.e.e.r.2.=.f.-.9.p.9.8.,.6.:.;.;.;.-.,.8.,.,.>.:.&.%.%.6.r.",
"-.-.>.8.9.8.9.>.%.h.-.q.c.a.8.8.>.&.&.;.w.s.q.8.8.>.%.%.%.j.%.;.8.8.9.8.9.9.7.7.x.k.-.2.8.,.;.%.;.,.8.9.8.8.>.&.$.;.a.n.q.8.8.>.%.&.>.w.w.5.8.,.;.&.%.%.h.%.>.8.",
"O.%.:.8.8.i.i.x.k.f.;.w.v.y.5.8.>.%.O.>.c.c.a.8.8.:.$.$.$.$.h.:.8.8.,.8.8.r.t.e.-.f.j.>.8.,.&.h.&.>.i.8.,.8.>.%.$.;.c.c.s.8.8.:.h.h.3.v.v.a.8.8.-.$.f.$.h.%.>.8.",
"$.%.:.,.8.,.8.>.k.h.;.a.c.a.8.,.>.%.%.;.s.m.a.6.,.;.%.%.%.%.j.:.,.,.,.8.8.e.t.7.;.k.=.:.>.>.%.j.&.>.,.,.,.,.>.%.j.>.s.s.a.8.6.:.%.%.6.c.c.u.8.,.-.%.%.%.$.&.:.,.",
"h.j.-.;.-.-.-.z.=.-.-.6.5.6.;.-.;.2.3.4.w.s.7.;.;.>.5.4.,.:.:.;.-.:.>.8.8.8.9.9.2.2.2.;.-.-.k.f.%.&.-.-.-.-.&.-.k.;.6.9.,.-.-.;.6.6.e.w.w.4.=.:.3.5.4.>.:.:.:.&.",
"j.j.O.%.j.h.h.j.k.z.z.z.;.&.j.j.-.e.t.t.r.e.2.%.%.3.c.c.a.8.,.;.j.%.:.8.8.8.8.8.r.t.e.-.f.j.j.j.h.$.$.$.j.h.%.z.z.z.z.;.z.f.f.x.r.t.r.t.e.;.$.%.5.y.c.u.8.,.-.f.",
"h.j.h.+.j.h.h.&.z.;.z.x.z.l.k.f.;.e.t.t.t.t.2.k.$.3.y.c.u.8.,.-.j.%.:.8.8.8.8.8.9.t.e.l.k.f.j.h.j.O.%.%.j.h.j.-.x.z.z.z.=.O.k.;.r.r.r.t.r.;.+.%.4.c.c.u.8.6.-.h.",
"h.k.;.;.;.;.-.;.6.6.6.z.k.k.l.;.2.7.9.9.9.e.2.j.%.:.a.s.5.>.:.-.j.&.6.u.p.3.;.>.7.9.9.;.=.-.j.h.%.;.;.;.;.;.>.6.6.6.z.l.-.;.;.2.9.e.e.e.9.:.%.%.3.s.a.8.>.:.-.k.",
"f.%.5.y.c.r.e.r.s.y.r.-.f.-.7.r.7.9.9.8.8.8.>.j.$.-.8.8.:.%.%.&.z.:.5.y.y.>.&.&.>.8.8.8.6.>.k.f.-.r.c.w.e.e.w.s.n.7.=.f.x.0.e.9.8.8.8.8.8.;.$.$.>.8.8.;.%.%.z.z.",
"j.=.q.v.n.t.t.t.n.v.s.=.h.-.7.t.r.8.8.8.8.8.:.%.$.-.,.,.:.$.$.%.z.:.q.c.c.;.O.$.>.8.8.8.8.,.&.h.-.a.v.c.t.t.w.c.v.q.&.$.;.r.t.r.8.8.8.8.,.:.$.h.:.8.,.-.$.%.&.z.",
"j.=.5.c.s.t.e.t.s.v.q.-.f.=.7.0.9.8.8.8.8.8.>.&.&.-.,.,.:.&.&.;.;.;.5.s.w.6.&.=.>.,.,.8.9.8.&.$.*.q.c.w.t.e.r.n.m.r.%.O.*.4.7.7.8.8.8.8.8.:.%.&.:.>.,.:.=.=.-.;.",
"j.%.;.6.6.6.;.8.s.v.q.-.h.%.&.-.;.,.8.8.8.8.,.>.>.:.&.&.2.q.q.4.7.7.6.-.;.4.q.q.;.&.;.5.s.5.-.O.%.>.6.6.>.>.8.s.c.r.=.%.$.-.-.>.8.8.8.8.,.,.>.>.;.&.&.3.q.q.9.7.",
"j.f.z.;.z.x.z.6.s.M.q.*.$.$.$.$.k.,.8.,.8.8.,.8.,.:.%.$.3.v.v.s.t.e.;.$.$.q.v.y.;.O.&.q.v.s.-.$.k.-.z.;.z.;.3.y.v.q.%.O.$.$.$.-.8.8.8.8.i.,.,.,.-.$.%.5.c.v.w.t.",
"%.%.z.z.z.z.z.>.a.v.q.-.$.$.%.%.-.,.,.,.8.8.8.8.8.z.j.%.3.c.c.w.r.t.;.$.&.5.c.s.;.$.=.a.v.s.;.$.%.z.z.z.z.z.6.s.c.q.%.$.$.$.$.-.8.8.8.8.8.8.8.,.-.$.%.4.c.n.t.t.",
"-.-.x.>.>.-.j.;.3.4.6.;.-.-.&.:.;.:.:.6.u.a.u.8.8.;.j.%.3.w.s.w.5.9.>.;.;.6.4.3.;.&.;.5.a.u.:.-.;.;.,.x.z.k.;.6.4.6.;.-.:.-.-.:.x.x.6.a.a.5.i.8.-.j.%.7.w.s.t.9.",
",.,.,.i.,.&.h.h.%.%.-.,.,.,.,.,.:.%.j.>.n.m.a.8.,.:.j.j.2.r.r.9.8.8.8.,.>.-.$.%.;.>.>.8.8.8.8.8.,.,.8.>.j.h.%.$.%.-.,.,.,.,.,.>.j.j.6.n.y.a.i.,.:.j.%.6.t.t.8.8.",
"8.8.8.,.,.k.h.h.$.f.%.>.i.8.8.8.>.%.%.;.s.m.s.8.8.:.j.O.;.r.t.9.8.8.8.8.,.&.$.%.;.,.8.,.8.8.8.8.,.8.8.>.k.h.$.$.$.-.,.,.,.8.i.:.j.j.6.n.c.a.,.,.&.j.%.6.t.r.9.8."
};
