/* XPM */
static char *_28312586e604fdd8b789fc558f11a6cmWaPwquZjerlWeiQ[] = {
/* columns rows colors chars-per-pixel */
"80 80 220 2 ",
"   c #170E06",
".  c #190F07",
"X  c #190F08",
"o  c #1D110A",
"O  c #22150D",
"+  c #2B1A0E",
"@  c #231510",
"#  c #271813",
"$  c #2C1B14",
"%  c #2E1C19",
"&  c #321E11",
"*  c #311F1C",
"=  c #2D241A",
"-  c #362113",
";  c #3C2515",
":  c #34211D",
">  c #3C251D",
",  c #332B1D",
"<  c #362221",
"1  c #3C2624",
"2  c #3F2826",
"3  c #412716",
"4  c #432917",
"5  c #402719",
"6  c #442A19",
"7  c #4B2E1A",
"8  c #4F311B",
"9  c #53331C",
"0  c #59361E",
"q  c #5B381F",
"w  c #442B25",
"e  c #4A2E25",
"r  c #442C29",
"t  c #4A2E29",
"y  c #463324",
"u  c #4E3025",
"i  c #45332C",
"p  c #4C322B",
"a  c #463A2D",
"s  c #4A3B2E",
"d  c #543425",
"f  c #593725",
"g  c #5E3A22",
"h  c #53342A",
"j  c #59372A",
"k  c #543A29",
"l  c #5D3A2B",
"z  c #473C30",
"x  c #503F30",
"c  c #623D22",
"v  c #683F26",
"b  c #633D2C",
"n  c #643E30",
"m  c #4B442E",
"M  c #494A2D",
"N  c #55472C",
"B  c #494432",
"V  c #4B4B35",
"C  c #594732",
"Z  c #524D32",
"A  c #4B5434",
"S  c #4C5B36",
"D  c #475938",
"F  c #4D5B39",
"G  c #565635",
"H  c #535C36",
"J  c #6D4224",
"K  c #66412D",
"L  c #6A422D",
"P  c #724524",
"I  c #774926",
"U  c #794A27",
"Y  c #71462C",
"T  c #75492C",
"R  c #7C4C2B",
"E  c #73552D",
"W  c #6C4332",
"Q  c #654934",
"!  c #734730",
"~  c #754A31",
"^  c #7B4D32",
"/  c #685836",
"(  c #7C5435",
")  c #4D6435",
"_  c #4B6538",
"`  c #4B6539",
"'  c #4B6C3B",
"]  c #566537",
"[  c #546B36",
"{  c #5B6D34",
"}  c #546C3A",
"|  c #4B743D",
" . c #4B7C3D",
".. c #597239",
"X. c #537B3C",
"o. c #5A7B3C",
"O. c #656837",
"+. c #78663D",
"@. c #627333",
"#. c #637A3A",
"$. c #70713E",
"%. c #557842",
"&. c #637341",
"*. c #804F2B",
"=. c #86522C",
"-. c #8A552D",
";. c #8E582F",
":. c #90592F",
">. c #814F36",
",. c #845234",
"<. c #8B5634",
"1. c #8E5935",
"2. c #885639",
"3. c #935C35",
"4. c #995F36",
"5. c #955C3B",
"6. c #985F38",
"7. c #9B6135",
"8. c #9C6238",
"9. c #A26436",
"0. c #A56639",
"q. c #A76839",
"w. c #A96939",
"e. c #B26E3C",
"r. c #B6703D",
"t. c #B9723E",
"y. c #8F6A45",
"u. c #936541",
"i. c #A96841",
"p. c #B36F46",
"a. c #A87147",
"s. c #BC7442",
"d. c #B97346",
"f. c #C47942",
"g. c #C57A46",
"h. c #4C883D",
"j. c #55863B",
"k. c #5B833B",
"l. c #5C8B3E",
"z. c #4B953F",
"x. c #53953F",
"c. c #5C943B",
"v. c #549B3E",
"b. c #5C9C3E",
"n. c #64863A",
"m. c #748736",
"M. c #6A9539",
"N. c #629D3D",
"B. c #759739",
"V. c #47A13F",
"C. c #4BA43F",
"Z. c #4FA83E",
"A. c #52A53E",
"S. c #5DA43D",
"D. c #54AB3E",
"F. c #5BAD3C",
"G. c #57B03D",
"H. c #5BB33D",
"J. c #5EB83C",
"K. c #63A43D",
"L. c #62AD3C",
"P. c #6CA93B",
"I. c #76AB37",
"U. c #72AB3B",
"Y. c #67B537",
"T. c #6AB637",
"R. c #6DBB36",
"E. c #63B33B",
"W. c #6BB53A",
"Q. c #62BB3C",
"!. c #6BBB3A",
"~. c #78B535",
"^. c #74BD35",
"/. c #7BBD35",
"(. c #73B539",
"). c #74BA39",
"_. c #76BA38",
"`. c #78BA38",
"'. c #7EC42F",
"]. c #65C03A",
"[. c #6DC138",
"{. c #74C235",
"}. c #7BC232",
"|. c #3D9841",
" X c #4D8342",
".X c #4C8B41",
"XX c #548942",
"oX c #479641",
"OX c #4C9341",
"+X c #459E40",
"@X c #4B9B41",
"#X c #529540",
"$X c #579D40",
"%X c #629241",
"&X c #46A140",
"*X c #49A240",
"=X c #4AA240",
"-X c #4FA840",
";X c #57A340",
":X c #54AC40",
">X c #55AD40",
",X c #61A340",
"<X c #80BA34",
"1X c #82C62F",
"2X c #85C82E",
"3X c #8CCA2F",
"4X c #90CC2D",
"5X c #82C631",
"6X c #87C931",
"7X c #D18047",
"8X c #D4834B",
"9X c #D9864D",
"0X c #DF894E",
"qX c #D98650",
"wX c #E28B4E",
"eX c #E88E4F",
"rX c #E38C51",
"tX c #E98E51",
"yX c #EC9152",
"uX c #F19353",
/* pixels */
"*XC.G.Q.Q.Q.Q.].>X&XC.V.V.C.&X&XD.}.2X^.A.V.Z.J.Q.H.C.&XC.C.z.D.J.Q.D.&X&XG.Q.Q.D.C.C.T.1X'.Y.z.C.G.].J.Q.Q.J.-X+X&XV.C.V.V.V.D.}.2X^.Z.V.A.J.].G.C.V.C.V.V.G.J.",
"&XC.G.Q.Q.Q.Q.>X-X&X&X*X&X&X&X+XA.}.2X^.A.V.Z.J.Q.H.C.z.+X@X+XA.H.E.F.C.&XG.Q.Q.A.V.C.T.2X'.J.z.C.G.J.].Q.Q.J.-X&X&X&X+X&X&Xz.D.}.2X^.Z.V.D.J.J.G.V.&XV.V.z.G.J.",
"&XC.F.J.J.J.Q.E.-X*X-XC.C.C.C.-XF.^.}.^.D.V.D.J.Q.H.h.' ' ' ' ' j.;X>X*XV.G.!.Q.H.Z.A.Y.'.^.F.V.C.G.J.J.Q.Q.J.C.*X*X*X-XA.C.Z.H.{.'.).D.V.D.J.].G.D.C.Z.Z.Z.D.E.",
"&XV.-X-XD.G.>X>X>XZ.D.H.W.W.E.W.Q.!.[.!.Q.H.Q.E.Q.S.[ a i i p i z X.;X-XA.Q.}.}.^.~.^.Y.F.D.A.C.V.Z.Z.Z.D.H.D.>X>XD.E.W.W.E.W.Y.R.R.!.J.H.J.J.Q.Q.G.H.Q.^.^.Y.D.",
"V.&XV.V.V.Z.>X>X>X>X>X!.~.`.`.).).Q.Q.Q.Q.L.;X$X,Xn.] K l l j t i | *X:XH.!.1X2X5X2X1XE.+XoX.X.Xh.OX+X*X>X>X>X:X>X>X(.~.).).~.).Q.Q.Q.Q.].Q.Q.Q.Q.Q.Q.[.2X2XT.V.",
"C.C.z.C.*XD.>X>X>X>XE.W.).).).).).!.Q.Q.E.XXG V V G ( 3.3.3.( k a | ;X>X>X!.'.1X6X6X1XE.@X| A V V ` XXV.:XF.F.:X>X>XW.).).).).).Q.Q.Q.Q.J.Q.Q.Q.Q.Q.Q.^.}.5XT.A.",
"E.E.F.F.H.E.E.E.>X=X>XE.).!.!.(.).L.,X>X$X&.N t p l 2.q.0.0.5.l a X.K.E.E.W.W.!.^.}./.E.#X` i 1 2 M k.S.S.,XL.;X>XF.Y.!.).W.!.!.E.Q.J.H.G.H.Q.Q.Q.Q.Q.Q.!.Y.E.F.",
"1X'./.).).(.).W.D.*X>X>XQ.Q.Q.Q.,X%...%.} / ( ^ ^ ,.5.q.w.w.5.l p n.(.).).F.C.C.L.`.U.n.} M w 6 2 s H ....#.%X#X&X-XJ.Q.Q.Q.Q.Q.J.J.G.C.&X-XJ.J.Q.Q.J.G.C.C.F.(.",
"6X6X}.).).).).).A.@XC.H.Q.T.Q.E.l.V p i s ~ 7.0.0.0.q.w.w.w.5.l z n.U.).).L.*X*XL.(.M.H i w 3 3 5 6 y i i i S c.@X-XH.Y.Y.Q.Q.J.E.J.>X*X*X>XJ.].Q.Q.J.G.C.C.F.).",
"/.{.).).(.).).W.F.+XC.L.K.c.c.c...Q l n K ,.q.w.q.w.w.w.w.0.1.l a n.(.).).L.;X-XK.M.o.m w 5 3 3 3 5 w r e y N X.h.h.c.L.Q.Q.Q.Q.J.G.F.D.A.F.J.Q.J.J.J.F.C.z.F.!.",
"D.D.E.Q.Q.Q.!.E.:X+XZ.N.{ m M m / 1.7.5.7.0.0.w.w.w.w.w.w.w.3.l p n.E.Q.Q.!.(.(.k.A a 7 3 3 3 3 3 6 7 8 9 8 0 N N m M #.).!.].J.A.C.D.^.{.^.Q.Q.H.Z.C.C.V.V.G.Q.",
"z.=X>XQ.Q.Q.Q.L.;XoXv.M.G p p h Y 8.w.q.w.w.w.w.q.w.w.w.w.i.3.l z XXE.Q.Q.W.(.U...a 1 ; 3 3 3 4 4 4 8 9 9 9 9 9 9 e u @.I.E.F.F.C.V.F.}.2X}.R.J.H.V.&X&X&X&XD.J.",
"&XC.G.J.J.Q.>XXX` ` ` O.,.,.^ ,.1.q.w.w.w.w.w.w.w.w.w.w.w.i.3.l a j.E.Q.Q.W.n...M = = ; 3 3 3 4 7 7 9 9 9 9 9 0 q 0 f C { { [ ..XX*XF.}.2X}.!.J.G.C.C.C.V.C.G.J.",
"&X&X-XD.:X>X#X] z i p K 3.0.0.0.q.q.w.w.w.w.w.q.w.w.w.w.w.0.3.l i X.L.Q.Q.,X) a = o O - 3 3 4 4 9 9 9 9 9 9 0 c c c N f p i i B &.K.W.~./.R.G.Z.H.!.Y.Y.G.G.G.D.",
"&X@XOX X X X%.G n n K ^ 7.w.w.w.w.w.w.w.w.w.w.w.w.w.w.w.w.w.3.l a | ;X>X%XXXM < % O + ; 3 4 7 7 9 9 9 9 9 0 q q c c v g d d p k O.B.B.M.M.K.Z.V.H.'.2X{.!.J.H.C.",
"&X&X' V z B C <.5.4.7.8.0.w.w.w.w.w.w.w.w.w.w.w.w.w.w.w.w.q.3.l a | ;Xc.H z = o # - ; ; 4 7 9 9 9 9 9 9 0 c c c c J J J J K J J E E / N G c.C.z.E.'.2X{.Q.Q.G.V.",
"&X@X` i t p n <.w.w.w.w.w.w.w.w.w.w.w.w.w.w.w.w.w.w.w.w.w.q.3.j a ' b.k.s < @ . + ; 3 4 3 7 9 9 9 9 9 0 q c c c c P P P P P P P P P J d m o.OXOXS.(.}.!.H.H.F.C.",
"*X@X[ i l ^ 1.8.w.w.w.w.q.w.w.w.w.w.w.w.w.w.w.w.w.w.w.w.w.w.3.l t M H M = @ X . + ; 4 7 7 9 9 9 9 9 0 q q c c P J P P P P P P P P P P J Y G S S S o.L.H.C.C.C.D.",
"*Xv.[ i n 4.q.q.q.w.w.w.w.w.w.w.w.w.q.w.w.q.w.w.q.q.q.q.q.q.1.l r r i : O .     + ; 4 9 9 9 9 9 9 0 q c c c c P P P P P P P P P P P U =.R C u i p H c.F.z.C.*X>X",
"&X@X) p L 4.w.q.w.w.w.w.w.w.w.w.w.w.w.w.w.w.w.w.q.0.1.>.>.,.! l u u u 6 + + + + & ; 3 9 9 9 9 9 0 0 c c c c J J P P P P P P P P I U *.=.=.L l b K / ..j. .| x.S.",
"z.@X` p W 7.w.w.w.w.w.w.w.w.w.w.w.w.w.w.w.w.w.q.q.8.Y h t h d f f g g 8 3 ; ; ; 3 3 4 9 9 9 9 0 q c c c c P P P P P P P P P P P U =.=.=.=.=.R <.8.2.C a x B { K.",
"&X@X_ i n 7.w.w.w.w.w.w.w.w.w.w.w.w.w.w.0.9.7.7.5.1.b e w w e f c c c f 7 4 4 4 4 3 4 7 9 9 9 0 c c c c J P P P P P P P P P P P U =.=.=.=.-.:.8.w.8.n r a Z @.P.",
"&X*X` i K 7.w.w.w.w.w.q.w.w.w.w.w.w.q.w.0.,.K b b b d e e 9 d q c c 0 g 0 0 9 9 7 4 4 4 7 9 0 g c c J J P P P P P P P P P P P P R =.=.=.-.3.0.s.8Xd.Q z @.B.I.).",
"D.A.` i W 4.w.w.w.w.w.w.w.w.w.q.q.q.0.0.7.! t r r e 7 9 9 9 0 g q g q J c 0 0 0 7 4 3 3 6 9 c c q c J P P P P P P P P P P P P P R =.-.-.-.7.w.g.0Xg.W B n.<X~.).",
"E.L.} i K 8.0.w.w.w.w.w.w.w.w.q.5.,.^ ^ ! d * * 5 6 6 7 8 9 9 0 q q q q q q 0 9 7 4 3 3 4 7 d d d f v P P P P P P P P P P P *.U *.=.;.:.7.9.0.0.i.y.&.%.,X`.(.Q.",
"Q.E.[ i W 7.0.w.w.w.w.w.w.q.w.q.,.j p u t * O @ > 5 6 6 7 9 9 9 0 q 0 0 0 0 9 9 7 4 3 3 3 w r t w u b J P P P P P P P P P P *.=.=.=.:.9.9.w.q.<.n G %.,XU.`.!.Q.",
"Q.E.[ i K 7.w.w.w.w.w.0.8.5.3.3.^ j t r 2 % O @ & & & ; 3 7 8 9 9 9 0 0 9 9 8 8 7 4 3 3 5 : < < < w f v v v v P P P P P P U *.-.-.;.7.e.r.0.1./ V ` #X>X(.`.!.Q.",
"R.W...i K 7.w.w.w.w.w.5.W l l l b Y L h w 1 < : @ O O O & 3 7 9 9 9 9 9 9 9 7 4 3 3 3 3 3 & # O O # w u e h f J P P P P *.*.=.-.3.8.r.7X7X<.K O.l.S.E.Q.].[.!.J.",
"{.!.{ i L 7.w.q.0.0.q.<.j e t t l R R j r r r : O o X X # ; 5 7 8 9 9 9 9 8 7 ; ; 3 ; 3 - $ X   X O : r r w d v J P Y U =.-.-.-.7.w.f.qX8X,.m o.E.].].].].].Q.>X",
"[.W...i W 7.8.,.~ ~ ~ L b b b b Y =.=.L b b b d : $ $ $ $ + & & - ; 7 7 7 4 4 4 ; + + + $ # % $ $ : e j f f j f j f f J *.-.:.7.r.g.s.q.u.$.o.b.Q.!.Q.].].].Q.>X",
"H.K.[ i K 7.5.W p p t j T =.=.R =.=.=.=.R =.R L e 1 2 1 % O . X o & ; 4 4 4 4 ; & o X . O $ r 1 1 w g J J J b u t t t l *.:.9.w.g.tXd.W Z k.J.Q.J.Z.Z.J.[.{.!.!.",
"D.A.[ i l ,.,.K h h d b R -.=.=.=.=.=.=.=.=.=.R b h h h > # O o O + - - - - - - $ @ O O # : p u t j v P P P v d p u u g P U ;.:.p.d.a./ ] $X].].G.z.|.F.{.}.`.`.",
"Z.;X[ i p j b L T T T R =.=.-.=.=.=.=.-.=.=.=.=.R R T T f w : < : $ O o O O O O # < < < w u v v b v v P P P P v v v v j h h j l n W &.%X$XL.].].>X+X|.>X{.5X`.`.",
"F.S.[ i w 1 t K ^ =.=.=.=.=.=.=.-.-.=.=.-.=.=.=.*.=.=.=.L t r r w $ o   o     o % w w w t b P P P P P P P P P P P P P v e t w w r r G %XE.Q.].[.Q.-X+XE.}.6X`.!.",
"J.E.} i < % : d K Y =.=.-.=.=.=.=.=.-.=.=.=.=.-.=.=.=.=.U K b f u > % * $ % % % 6 b n n v ~ *.U U P P P P P P P P P v v b d t r r r H ;XJ.Q.`.{.[.>X>X).6X3X`.J.",
"Q.L.} r : o @ < t v =.-.=.=.=.=.=.-.=.=.=.-.=.=.=.=.=.=.=.=.U v g u r 1 1 w 1 w b *.=.=.=.=.-.*.I P P P P P P P P P P P v b t r r r F ,XJ.!.{.6X).Q.Q.).3X4X).>X",
"Q.E...i * o o : w f L Y Y T *.=.=.-.=.=.=.-.=.-.=.=.*.R U R T c f t w t h h j k v =.-.-.-.-.-.*.R U U U I P P P I v v v v b b b p r H $X>XQ.{.'.{.Q.E.).6X6X`.J.",
"}.)...t * o o & 5 e p d p f Y =.-.=.=.-.=.=.=.=.-.=.I J J v b d w w r h W R T R *.=.=.-.=.-.:.-.=.=.*.*.U I P P v f t t t j >.<.K p F #X>XE.}.2X{.).!.(.).).[.).",
"2X<X@.i * o o & 5 5 w w w t v R *.R *.=.=.=.=.*.*.*.J g g g g e t t t b R -.=.=.-.=.=.=.=.-.-.-.-.-.-.=.*.P v J v j d t t b <.9.~ p H OX&XH.}.2X5X`.`.!.>XJ.).}.",
"2X/.@.r : o o & 5 ; w 5 e e f b l b v *.=.U I P I J f h e d h b b n n Y =.=.=.-.=.=.-.-.=.-.-.-.-.-.4.4.U g j h j Y ~ >.^ ,.4.9.! p S OX*XF.}.2X5X(.(.!.].Q.).6X",
"6X<X@.i * o o & 3 3 3 7 8 9 t r r w h Y =.P v c c c e w w w h Y =.=.=.=.=.=.=.=.-.=.=.-.-.-.=.-.=.3.4.0.^ t w w h ,.9.0.w.0.w.0.! p H OX&XF.R.}.).E.E.W.!.R.).}.",
"6X<X@.r * o o & 3 3 3 4 8 8 7 y e e h v L b f f f f j j j j v R =.=.=.=.-.=.-.=.=.-.-.:.:.:.:.=.Y ! >.^ ^ n b b n <.0.w.0.w.q.9.! p H #X&XD.Q.Q.J.=X*XL.}.5X}.`.",
"5X<X@.i * o o & 3 3 4 4 8 9 9 u 0 f f d u t w r e t n R R U R =.=.-.=.=.-.=.=.=.-.=.:.4.q.0.9.=.l e h j ! 4.3.4.4.0.w.w.w.w.q.0.! p H $X&XZ.J.Q.G.*X+XE.5X6X}.).",
"5X~.@.t * . O & 3 3 3 4 8 9 9 9 0 c g e w t w r r e K U *.<.<.=.=.=.-.=.=.=.-.:.:.-.:.4.4.4.6.,.l h u j ! 0.w.w.w.w.w.w.q.w.q.9.~ p H %X-XD.G.J.H.A.>XQ.{.}.{.!.",
"2X~.[ i * o o & ; 4 4 7 8 9 9 9 q g g 0 f f d e w r h b R 3.4.-.-.=.=.-.=.-.3.7.7.7.<.~ n Y n ~ ^ >.^ ,.3.q.w.w.w.w.w.w.w.w.w.0.! i H %XW.F.D.Z.H.^.^.^.[.!.!.!.",
"2X/.[ 2 * o O & 4 ; ; 4 8 9 9 9 q q c c q c g f r r r t W 7.9.-.=.=.=.=.=.:.4.q.q.9.1.b t t t W 6.0.q.w.q.w.w.w.w.w.w.w.w.w.w.0.~ p F ,X`.Y.C.z.F.2X2X{.].J.J.].",
"2X~.[ r & O . & 4 4 4 4 8 9 9 9 0 q c c c c c g f d l L ! ,.,.Y T *.3.3.3.:.<.,.,.>.^ W b n L >.8.w.w.w.w.w.w.w.w.w.w.w.q.e.f.p.^ p G P.).E.C.V.Y.'.2X}.!.J.Q.J.",
"<X~.[ r * . O & ; 4 4 4 8 9 9 9 q c q c c c q v J Y <.5.^ h p u j ^ 9.0.q.4.Y u d d b <.4.4.9.9.w.w.w.w.w.w.w.w.w.w.w.w.w.r.8X9X5.p F K.!.W.E.F.T.'.2XR.G.D.G.F.",
"`.U.[ r % o o & 3 3 3 4 9 9 9 9 0 c c c c c c c P *.:.:.=.q 9 h b >.5.4.4.3.n d h d v 3.w.w.w.w.w.w.w.w.w.w.w.w.w.q.w.w.w.r.8X9X5.z F S.Q.!.).)./.1X2XT.C.C.C.V.",
"`.U.} 2 : o o - ; 3 3 7 8 9 9 9 0 c q c c q q P P P =.=.=.=.-.-.>.v b n n n >.,.,.,.1.9.w.w.w.w.w.w.w.w.w.w.w.w.w.w.w.w.w.w.t.t.,.p F b.Q.!.).)./.6X1XT.C.V.z.V.",
").P.} r % o o & ; ; 4 4 8 9 9 9 0 q q c c c c c P P P P -.9.9.w.4.! h t t d ,.0.w.q.9.q.w.w.w.w.w.w.w.w.w.w.w.q.w.w.w.w.w.w.e.q.~ p H ,XQ.Q.(.).^.^.^.T.F.A.D.A.",
"Q.E.{ i : o o O & ; 3 4 7 8 8 9 0 c c c c c c c P P P P =.:.:.:.4.>.n n t h ,.0.w.w.w.w.w.w.w.w.w.w.w.w.w.w.w.w.w.w.w.w.w.w.s.s.>.p H ;XQ.!.).).E.A.A.L.W.W.(.(.",
"Q.E...y % o   . O + ; 4 4 4 8 9 0 q c c c c q P P P P P P P *.=.;.4.4.>.h h ,.i.w.w.w.w.w.w.w.w.w.w.w.w.q.w.w.w.w.w.w.w.w.t.9X9X5.h F ,XQ.!.).).E.C.V.F.).).).).",
">XL.{ i : o   o O + 3 4 4 4 8 9 0 c c c c c c c P P P P P P P *.-.4.0.=.h h ,.w.w.w.w.w.w.w.w.w.w.w.w.w.w.w.w.w.w.w.w.w.w.t.wXwX5.x H ,XQ.Q.).).L.C.V.F.T.).).).",
">X;X} i % o o + & ; 3 4 7 8 8 9 0 q q c q c c c P P P P P P P =.;.4.0.,.h h >.q.w.w.w.w.w.w.w.w.w.w.w.w.w.w.w.w.w.w.w.w.w.t.0XrX5.j H $X>X>X[.!.H.C.z.C.A.F.H.!.",
"*X@X` i : o o $ ; 3 4 4 8 9 9 9 0 c c c c c q c P P P P P P I =.-.7.0.,.h h ,.q.w.w.w.w.w.w.w.w.w.w.w.w.w.w.w.w.w.w.w.w.w.e.0XrX5.h H OX&X>X>XQ.H.C.V.C.C.z.F.J.",
"*XoX' z = o o O + - 3 4 9 9 9 9 0 c c c c c q P P P P P P P *.*.-.4.q.,.j h ,.0.w.w.w.w.w.9.w.w.w.w.w.w.w.q.w.w.q.w.w.w.w.t.wXwX5.h H #X+X>XQ.].G.C.V.V.V.C.D.J.",
"*XoX` 2 * o   X O + ; 7 8 9 9 9 0 c c q c c c c P P P P P P P *.-.4.q.,.h h ,.0.w.w.w.w.w.w.w.w.w.w.w.w.w.w.w.w.w.w.w.w.w.t.0XwX5.h ] $X>X>X>XQ.H.G.Z.G.F.F.H.F.",
"*XoX` 2 * o     . + ; 4 8 9 9 9 0 q c c c c c P P P P P P P P *.-.7.9.,.h h ,.w.w.w.w.w.w.w.w.w.w.w.w.w.w.w.w.w.w.w.w.w.r.f.wXwX5.x H K.J.Q.Q.Q.Q.J.J.R.'.2XY.Z.",
"*XoX` 2 : o     . + ; 4 8 9 9 9 q q c c c q c c J P P P P P *.*.-.9.q.*.h h ,.w.w.w.w.w.w.w.w.w.w.w.w.w.w.w.w.w.w.w.w.f.9XrXtXwX5.h F ,XQ.Q.Q.Q.Q.Q.Q.^.'.2XT.Z.",
">Xv.` r : o X     + ; 4 8 9 9 9 0 c c q c q q J P P P P P P *.*.-.4.w.,.h h ,.i.w.w.w.w.w.w.w.w.w.w.w.w.w.w.w.w.w.w.e.f.tXuXuXrX5.x F ,XQ.J.Q.Q.Q.Q.Q.[.}.}.Y.A.",
"^.(.[ i 1 = # o   + ; 7 8 9 9 9 0 q c c c c c c J P P P P P P *.-.4.w.,.h h ,.0.w.w.w.w.w.w.w.w.w.w.w.w.w.w.w.w.w.w.w.f.eXuXuXrX5.h F #XC.G.J.Q.Q.Q.J.J.G.D.F.T.",
"6X<X@.i 2 2 1 O . + ; 7 9 9 9 9 0 c c c c c c J J P P P P P I *.-.4.0.>.h h ,.w.w.w.w.w.w.w.w.w.w.w.w.w.w.w.w.w.w.w.r.f.tXuXuXrX5.h F OXC.D.J.J.Q.Q.Q.G.C.V.F.(.",
"2X/.n.H G G A , O & ; 7 8 9 9 9 0 q c q c c q q P P P P P P I =.-.4.w.,.h h >.w.w.w.w.w.w.w.w.w.w.w.w.w.w.w.e.t.s.s.f.g.tXyXg.d.>.p F OX&XZ.J.].Q.J.J.G.C.z.F.^.",
"Y.E.K.K.K.K.n.A < 1 1 r 9 9 9 9 f g c c c c c c P P P P P P I R =.7.9.,.h h ,.w.w.w.w.w.w.w.w.w.w.w.w.w.w.w.t.g.rXwXwXeXtXqX5.W h i F N.W.Q.Q.Q.J.G.D.D.V.V.D.R.",
"C.C.H.Q.!.Q.K.} z a z p d 7 9 7 0 g J q c c q c P P P P P P I =.3.4.q.=.h h ,.q.w.w.w.w.w.w.w.w.w.w.e.t.e.e.f.uXtXtXrXrXrXg.~ z i z ] I.1X{.!.Q.G.C.V.V.C.V.D.Y.",
"z.C.G.Q.Q.Q.E.$X%.| X.{ N y e d d g q q 0 c c c P P P P P P I =.-.4.q.,.j u ,.w.w.w.w.w.w.w.w.w.w.e.f.g.9Xg.wXeXtXd.5.5.5.y.&.o.| | XX/.2X}.!.Q.G.V.V.z.V.V.D.J.",
"z.Z.D.J.>XE.:XL.;X@X$XM.Z y r r u g q J c c c c P P P P P P U U -.4.q.,.h h ,.q.w.w.w.w.w.w.w.w.w.t.g.uXyXeXeXyXqX2.h h p Z #XL.;X;XL.{.1X^.J.H.J.D.D.D.Z.Z.G.J.",
"V.C.C.Z.>X-X-XC.C.>X>X$X} S D A M N f f 0 g g J P P P P P P U =.-.4.q.,.h h ,.q.w.w.w.w.w.w.w.e.t.f.rXyXwXg.g.d.p.&.G S S _ z.D.W.(.(.).^.W.D.C.H.^.'.R.J.J.G.Z.",
"V.V.V.z.&X&X&X=X:X>X>X>X$X#Xh.h.} k t p y d 0 J P P P P P P P =.-.4.q.=.h h ,.q.w.q.w.w.w.w.w.s.0XtXyXrXe.b n n / &.XXc.z.z.z.A.W.).).).).E.C.z.F.'.2X}.!.Q.G.*X",
"&X&XC.Z.C.C.C.C.D.F.>XF.>X-XZ.*X XA k s s l g J c P P P P P I =.-.4.q.,.h h ,.q.w.w.w.e.r.e.e.f.9X0XwX8Xu.x i z V XX>X>XD.C.C.A.W.).).).).E.C.&XY.}.1X[.Q.J.G.*X",
"&XC.F.R.).Y.E.W.R.{.!.G.*X-XL.L.K.n.k.XXk.H d d 9 0 J P P P U U <.4.q.,.h h ,.w.w.w.p.g.g.wXg.f.3.2.2.2.+.n.#.n.M.P.D.C.D.L.E.Y.!.!.!.!.!.J.C.&XD.R.[.Q.D.D.Z.Z.",
"&XC.R.2X5X/.).).5X2X}.F.V.Z.Y.).(.W.J.Q.L.o.a i i u J J J J P =.-.7.0.,.k h ,.w.q.q.g.qXyXyXrXp.n p p x #.I.~./.6X/.D.V.A.T.).).Q.Q.Q.Q.].G.C.V.D.J.].G.C.z.C.G.",
"&XC.T.2X5X/.)./.}.6X/.F.z.A.W.^.).Q.Q.Q.E.%X} F D F C l b c L -.3.8.q.,.h j 5.s.f.f.d.d.p.p.p.y.] ] O.O.M.).`.5X6X/.D.V.A.(.~.).!.Q.Q.Q.J.H.C.V.Z.J.J.G.C.C.C.G.",
"*XC.Y.^.).).W.W.'.2X'.A.V.Z.F.J.E.Q.Q.Q.Q.E.;X;Xv.#XG p t t l <.0.q.0.,.h l i.rXeXrXg.( K K K ] XXN.P.P.P.E.T.}.2X}.F.z.Z.F.Y.J.Q.Q.Q.Q.Q.J.G.D.G.G.G.H.E.F.E.E.",
"&X*XD.F.E.>X>XH.^.2X/.H.V.V.V.C.:XJ.Q.Q.Q.Q.Q.Q.Q.F.' B m N G 1.8.8.8.~ p j i.8X9XqXp./ B B B ' +X>XJ.D.F.F.E.^.2X}.D.V.V.V.C.Z.>XQ.Q.Q.Q.J.J.J.G.Z.V.E./.}.^.).",
"+XC.Z.>X>X>X:XJ.^.2X'.F.z.V.V.V.*XE.Q.Q.Q.Q.J.Q.Q.>Xh.h.j.m.m./ K K L l r t W ^ >.>.&.$.B.M.k..X@X>X>X>X>X>XH.}.2X}.F.V.V.z.&XC.Q.Q.J.Q.Q.J.].J.G.C.z.H.'.2X}.`.",
"C.C.>XG.G.>X>XG.R.'.^.D.C.C.C.C.>X>X>XQ.Q.[.].Q.Q.H.&XV.F././.] u e t r r t i u t t G B.}.}.E.=X:X>X>X>XD.>XG.R.}.^.D.V.C.C.Z.Z.Q.>XJ.!.R.].J.].G.C.C.H.}.2X/.).",
"H.H.J.J.J.D.*X-XD.F.F.H.G.H.G.G.G.A.>XJ.{.}.{.Q.Q.J.Z.V.F.).I.#.[ ) ] ) ` ) ) D ) ) X.K.R.[.Q.H.H.>XQ.>X>X*XZ.F.F.F.H.J.H.G.G.G.>XZ.H.^.}.[.].J.G.C.V.F.^./.^.!.",
"Q.Q.J.J.J.Z.&X&XV.V.C.H.].J.].].J.-X+XF.}.6X'.Q.Q.G.z.z.F.(.).P.L.S.S.F.S.$Xh.z.x.;XF.E.J.Q.Q.Q.Q.Q.Q.Q.D.&X&X&XV.V.J.J.].].].H.-X&XF.}.2X'.!.J.H.C.V.F.).).!.Q."
};
