/* XPM */
static char *_187f720f4dd4c4687119b584665a006zruwNSj6uYna2Nz5[] = {
/* columns rows colors chars-per-pixel */
"80 80 211 2 ",
"   c #010100",
".  c #090700",
"X  c #060A04",
"o  c #0B0A03",
"O  c #080708",
"+  c #0B0B0B",
"@  c #120E01",
"#  c #0A1106",
"$  c #0D130A",
"%  c #161101",
"&  c #1B1501",
"*  c #181904",
"=  c #11150E",
"-  c #131B0E",
";  c #0F0E10",
":  c #100F10",
">  c #131313",
",  c #151A13",
"<  c #191B17",
"1  c #181718",
"2  c #1C1C1B",
"3  c #241C02",
"4  c #201F1F",
"5  c #1A270C",
"6  c #172214",
"7  c #1C2816",
"8  c #1E221C",
"9  c #2C2202",
"0  c #352A02",
"q  c #362A03",
"w  c #3E3103",
"e  c #222F13",
"r  c #21251E",
"t  c #232B1C",
"y  c #25361A",
"u  c #1F1E20",
"i  c #201F20",
"p  c #222322",
"a  c #252A23",
"s  c #292D24",
"d  c #292929",
"f  c #263224",
"g  c #2A3325",
"h  c #273A25",
"j  c #2B3B26",
"k  c #2B3C29",
"l  c #313B26",
"z  c #343334",
"x  c #433504",
"c  c #4C3C04",
"v  c #503F04",
"b  c #28431B",
"n  c #314E1B",
"m  c #2C541D",
"M  c #3A551B",
"N  c #33581B",
"B  c #2D4225",
"V  c #2D452A",
"C  c #2D4A2B",
"Z  c #324425",
"A  c #384626",
"S  c #314C27",
"D  c #394E24",
"F  c #324528",
"G  c #334B2A",
"H  c #394C29",
"J  c #2C5B22",
"K  c #34542B",
"L  c #39562B",
"P  c #365A2E",
"I  c #3A5C2D",
"U  c #335D31",
"Y  c #33622B",
"T  c #3C632F",
"R  c #336B2B",
"E  c #3E6D2B",
"W  c #3D732F",
"Q  c #356231",
"!  c #396331",
"~  c #3A6C33",
"^  c #3D7234",
"/  c #3A7933",
"(  c #5A4705",
")  c #634E05",
"_  c #6D5606",
"`  c #745B06",
"'  c #476C1E",
"]  c #4B711A",
"[  c #7D6207",
"{  c #415C26",
"}  c #466826",
"|  c #43652C",
" . c #446B2E",
".. c #4B6B2D",
"X. c #49732B",
"o. c #527929",
"O. c #547D2C",
"+. c #446B30",
"@. c #437533",
"#. c #4C7530",
"$. c #457A30",
"%. c #4B7E32",
"&. c #537C31",
"*. c #4A4A4A",
"=. c #515051",
"-. c #636363",
";. c gray46",
":. c #846807",
">. c #866907",
",. c #8F7008",
"<. c #977708",
"1. c #9B7A08",
"2. c #3A8236",
"3. c #43822D",
"4. c #4B832C",
"5. c #4C8B2D",
"6. c #56862D",
"7. c #5C842B",
"8. c #558A2D",
"9. c #5E9427",
"0. c #5B942B",
"q. c #448436",
"w. c #4B8433",
"e. c #4C8B35",
"r. c #468938",
"t. c #428C3A",
"y. c #568832",
"u. c #4E9334",
"i. c #44933C",
"p. c #4A933A",
"a. c #469C3D",
"s. c #4B9C3B",
"d. c #539534",
"f. c #5B9332",
"g. c #549C34",
"h. c #5C9A35",
"j. c #539C39",
"k. c #628E2A",
"l. c #689928",
"z. c #649A31",
"x. c #47A13F",
"c. c #4BA43F",
"v. c #4FA83E",
"b. c #55A434",
"n. c #5CA234",
"m. c #57A836",
"M. c #5BAB36",
"N. c #52A63D",
"B. c #5AA43A",
"V. c #53AB3E",
"C. c #5BAD3C",
"Z. c #5DB037",
"A. c #57B03D",
"S. c #5CB33D",
"D. c #5EB93C",
"F. c #71AC2B",
"G. c #7AB72D",
"H. c #63A333",
"J. c #69A734",
"K. c #6CAD36",
"L. c #62AF3B",
"P. c #67B637",
"I. c #6BB536",
"U. c #6DBB36",
"Y. c #63B43B",
"T. c #6BB539",
"R. c #62BB3B",
"E. c #60B93C",
"W. c #62BB3C",
"Q. c #62BC3C",
"!. c #6BBB39",
"~. c #6DBA3A",
"^. c #73B433",
"/. c #75BD34",
"(. c #74BC35",
"). c #7ABD35",
"_. c #71B639",
"`. c #74B939",
"'. c #76BA38",
"]. c #78BA38",
"[. c #7EC42F",
"{. c #6EC137",
"}. c #65C13A",
"|. c #69C139",
" X c #74C235",
".X c #7AC232",
"XX c #7CC332",
"oX c #71C038",
"OX c #3D9841",
"+X c #449F40",
"@X c #45A040",
"#X c #46A140",
"$X c #48A240",
"%X c #49A240",
"&X c #4EA840",
"*X c #54AC40",
"=X c #55AD40",
"-X c #58AF40",
";X c #B48E0A",
":X c #BB930A",
">X c #C59B0B",
",X c #D4A70C",
"<X c #EBB90D",
"1X c #F2BE0D",
"2X c #83C62E",
"3X c #85C82D",
"4X c #85C82E",
"5X c #8CC92E",
"6X c #91CD2D",
"7X c #82C631",
"8X c #84C832",
/* pixels */
"W.D.N.x.c.x.#Xv.D.W.A.&X#XY..X2XP.c.a.$X$Xc.c.#Xc.A.W.W.W.W.D.*X$XV.(.3X(.V.+XV.D.R.Z.c.#XV.D.Q.A.c.x.x.#X$XA.W.D.V.x.c.(.2X.XM.#X#X&X+X&X+X+XB.*XQ.Q.W.Q.D.%X$X",
"Q.D.c.+X#Xx.+XV.D.W.C.c.#XZ.7X3XI.c.#X$X#X#X$X#Xc.A.Q.W.W.W.S.%X#XV..X3X.XN.#X$XW.Q.S.c.#Xv.D.D.A.c.#Xx.x.&XS.D.D.V.c.c.(.3X.XC.#X#X#X+X#X+X#X*XQ.Q.Q.Q.W.V.$X#X",
"D.S.V.N.V.c.c.V.D.Q.S.&Xc.Y..X[.Y.N.$X&Xc.c.$X$X&XA.W.D.D.D.D.%X+XN._.2X(.M.c.C.W.W.S.&X&Xv.S.D.V.v.v.c.c.c.S.Q.W.V.&Xc.U.[..XM.$X%X*X%XN.+X$X&XD.Q.D.D.D.C.c.x.",
"v.C.I.(.I.D.A.D.D.Q.D.D.S.Q.!.{.T.T.T.T.T.Y.C.*X*X-X*XC.V.V.V.c.$X%XV.M.Z.I.(..X.X.X!.C.v.v.v.V.Y.(.(.!.S.S.D.D.W.D.S.S.R.!.!.!.T.T.L.T.K.*X*X*X*X-X*X*XV.c.x.x.",
"x.N.).3X[.!.R.R.W.W.Q.Q.D.Q.Q.W.~.'.'.'.'.'.Y.*X*X*X*X*X%X#X$X$Xc.$X#X#XV..X3X2X2X3X).C.*X&Xa.c.Y.2X2X XQ.R.R.W.W.W.W.W.R.Q.R.(.'.'.'.'._.D.*X*X*X*X&X+X+X$X#Xx.",
"c.V.(.2X.X!.R.R.W.W.W.D.Q.Q.R.R.~.'.'.`.`.'.Y.C.*X*X-X*XN.$X$Xa.c.$X$X$XC.).2X2X7X7X(.S.C.V.#Xc.P.[.2X XQ.R.R.R.W.W.W.W.Q.R.!.'.'.'.'.'.!.-X&X*X*XC.*X$X$X$Xc.$X",
"C.L.Y.P.I.Q.Q.Q.W.W.D.C.C.S.D.R.W.!.~.~.!.~.M.&X*XC.Y.Y.Y.C.L.Y.D.Z.C.V.Z.(.XX).T.T.T.Y.Y.-XC.C.L.P.P.R.R.R.R.R.D.S.C.S.*XW.W.W.!.!.!.`.Y.=X&X*XY.Y.Y.-XL.L.Y.Y.",
"'.T.N.c.v.D.Q.Q.W.Q.A.&X+XV.S.D.Y.W.Y.Q.Q.Q.V.a.c.L.`.`.`._.`..X2X.X!.W.Q.'.].T.N.#X*X_.'.'.'._.M.c.c.C.D.Q.R.R.D.V.$X&X-XD.Y.W.W.!.W.W.S.%X#XB.T.'.'.'.'.].8X2X",
"'.T.N.#Xv.D.Q.Q.W.Q.S.c.a.V.S.C.e.w.%.e.M.D.V.c.&XL.`.`.'.(.].7X3XXX|.Q.!.(._.f.^ ^ @.&.f.J.'.'.C.#X#XA.R.Q.R.Q.W.V.#Xc.C.D.D.Y.Q.R.W.Q.D.c.+XV.T.`.'.`.'.XX7X3X",
"'.T.c.x.c.A.D.D.W.Q.D.V.V.N.N.e.G s d k X.n.V.c.#XS.`.'.'._._.(.).(.!.Q.D.H.f.L g a a s D 6._._.Y.&X#XV.S.S.R.Q.D.S.V.C.C.A.-XD.D.R.R.|.R.N.#XN.I.'.'.`.'._.).(.",
"W.R.c.c.c.c.c.V.D.W.!..X(.n.E V a p r a b o.g.a.c.S.R.!.Q.R.R.V.N.V.D.D.u.Y j a p u p p a I Y.Q.-X$X$Xc.c.v.S.D.W. X.X(.C.c.V.S.Q.U. X2X(.V.a.V.W.W.W.R.W.Y.V.N.",
"R.D.v.a.x.x.x.v.D.W.{.[.G.f.Y a p 1 > p s o.g.c.&XC.Q.Q.R.R.D.v.#Xc.D.b.E h p p > + + u p P M.Q.C.$X#X#Xx.x.A.Q.!. X2X.XC.+Xc.S.D.!.XX2X(.N.x.V.D.Q.W.Q.Q.A.c.#X",
"W.D.c.c.x.c.c.V.S.D.U.F.l.X.B r > + $ r a D w.$Xc.A.D.Q.Q.D.D.N.x.c.S.q.B p p > +   O > p L M.D.A.&X#Xc.c.v.V.W.W.].7XG.%.~ ~ @.@.$.O.7.O.@.t.*XD.D.W.D.D.S.$X#X",
"V.V.C.A.D.P.U.P.C.V.M.0.] b p 2 O   X - r a L i.c.c.c.c.s.c.c.a.a.i.2.K p r 1 O       : u F r.N.V.A.S.Y.I.U.Z.V.C.T.7Xz.G g g g h h g g g k ~ s.&XV.V.V.V.N.$X$X",
"#X&XS.D.!.[.2X(.&Xx.B.f.b < r 1 X     O 1 p f I e.t./ R R / / / / Y B a p 1 O         X > a C t.A.D.Q. X2X2XY.$X$XL.K.f.l a s a a r t a a a g ~ #X#X#X#X+X$X+X$X",
"#Xv.D.Q.U.[.3X(.v.x.B.k.b 2 1 O         O 1 p g C C B h h h h h f y p i > O             > u k t.V.D.Q. X2X2XY.$X$Xn.7.H a , $ + + + + 6 y a a ! a.#X#X#X$X$X$X$X",
"c.v.C.A.D.(..XU.v.x.N.8.l , O             O 2 a s a a p p r p 4 i 2 > $ O               O > g r.V.A.S.!. X XS.#Xa.w.H s a - .       X # - , r F @.j.C.C.Z.V.$X$X",
"*X*X&X$XV.D.Q.S.c.x.c.5.B ;                 $ r t y 2 , > > 1 > > : X                     + j p.v.c.c.A.!.Q.C.#Xi.I s a 7 = X           X X = r A y.K.XX2XI.c.$X",
"*X*X$X#Xc.D.Q.S.c.x.v.u.Z >                   # 5 5 $ X X       O                         + g q.c.x.x.A.D.D.C.a.i.K p < # X               X   , d A z.3X8XI.&X#X",
"-XC.N.N.V.S.D.S.v.c.V.u.Z +                   . # . .                                   . + p G q.N.v.A.D.D.V.$Xa.P 8 = X                     + u l z.7X.XI.c.$X",
"T.!.(.(.U.V.c.C.S.S.S.d.B ;                                                               + u s 6.(.(.Y.c.N.A.D.C.I p >                       X : h e.Y.W.*X%X$X",
"].].7X3X(.V.x.v.D.W.N. .g >                                                               X > a 7.2X2XP.x.c.A.Q.Y.T a 2 : O                     O p ! p.*X*X$X#X",
"'.].7X7X(.N.x.v.D.W.d.F p >                                                                 X t 7.2X2XP.c.#XC.Q.D.%.F a 2 >                     X 1 h @.*X*X$X$X",
"!.'..XXX_.N.x.v.R.Q.d.g 2 +                                                                 O 8 &.].).Y.x.c.A.D.R.P.6.Z a 2 ;                     O 8 @.C.*XC.C.",
"W.!.'.'.I.c.x.v.D.Q.f.g >                                                                   X a G 7.^.C.c.c.S.Q.R.(.F.7.j r >                       8 @.R.R.R.Q.",
"W.W.`.'.T.c.x.V.D.Q.h.y O                                                                   X , r .._.C.x.x.V.D.Y.9.] M 6 4 > . X                 o 8 @.R.R.Q.R.",
"W.Y.`.`.Q.V.v.A.Q.Q.f.f O           . @ @ .                                                   o 2 ..I.Y.v.v.D.Q.D.' 7 - > 2 > X X                 X 8 $.R.R.}.Q.",
"S.D.W.}.}.}.D.}.}.}.d.f O           3 v c &                   . . . o o .                   X # 8 | I.Q.Q.D.Z.M.g.I y a 8 2 > X                   O 8 $.Q.!.|.{.",
"*XS.Q.}.}.}.}.}.}.|.d.f O         . ( ;X1.w .                 & 0 9 0 w 3 .                 X # 8 E Q.Q.}.Z.3.L S f p 2 = , >                   O 1 a $.Q.|. X X",
"-X*X!.|.}.Q.Q.}.}.}.d.f O       . ) >X>X) 9 @               3 ) ` 9 9 _ ) .                   $ 2 | Q.!.Q.M.W y a 8 = $ O + +                   O p g w.}.|.{.{.",
"_.~.oXoX!.V.c.*XQ.}.d.f +       @ 1.,X` 3 c 0             o ) >.) & & ( v .                   # 8 } U.Z.2.2.S a 7 = X X   X X                   O a | z. X{.S.S.",
"'.].XXXX~.%X2.*XD.}.d.f O       o 1.<.% @ _ c           o x ;X>.@ o w 9 .                   . - r ..(.M.2.C t < + .                           O : y z.7X.X'.V.*X",
"'.'.].7XI.c.OX&XD.}.d.f ;       @ >.[ @   & @           9 :X1X>.. & ,.) @                   O 8 f ..).M.2.C < X                             X - 2 l z.8X8X|.*X&X",
"T._.7X8X(.=X$X-X|.{.h.Z 2 +       3 w 9 @ @ o           w ,X1X[ . o c >.) .               X < p t ' ).K.2.S < X                             X < a A J.[.XX'.D.-X",
"*XY.7X5X7XY.-X!. XXXY.@.k >         o 0 ` [ x           0 >X<X` o . & c x .               + i p n l.5X(.5.K 1 O                         X X * e { 7.^..X X|.Q.Q.",
"*XY.8X6X8XW.*X~. XXX'.B.G +           3 >.<.c     X X   3 >.<.( .   o o                 X : u 8 o.2X2X(.d.L 1                           X 5 5 M k.)..X XoX|.Q.Q.",
"-XW.7X8XXX~.W.~.XXXXoXC.C ;     X O   . @ % o   O ; O     % % o                         > t y y 7.G.F.I.8.K 1                           + 5 t } G.[..X X X{.|.|.",
"XX]._.!.!._.~.'.8X8X'.s.V >   O > 2 ;         O > +                   O                 > A 8.k.H.z.d.H.4.Z 1 O                       + 1 r r | P.P.(..X[.XX[..X",
"8XXXW.W.Y.'.(.).7X3XI.s.V 2 1 > : : O         + 1 O           + 1 > > > ;               > g { M M K K | D g 1                   O + > 1 p s g @.Z.D.!.[.8X8X3X3X",
"8XXXT.Y.Y.'.'.).7X7XI.s.V p i > X O : +       + 1 + O         + > 1 1 2 2 ; + X         > 4 i : 1 r p g t p 1 .                 $ 2 p a g I  .e.Y.D.U..X3X8X8X8X",
"].XXoXoX~.Y.C.Y.{. XL.q.k p 2 o O 1 p > X     O : : O       X O O O   : 2 2 i >         + 2 i u 1 1 1 r 8 1 >                 O p a k C I H.(.(. X'. X7X7X3X2X8X",
"].].8X8X].*X$XV.W.Q.u.V f d 2 - 2 i >           X   O       > 1 > X     O + 2 i >       X + 2 2 : X X X + O                   + p k ^ t.j.(.8X7XXX8X7X7X3X7X8X7X",
"].'.8X8X(.&X+XN.S.W.p.k U G p 8 p > O X                     O + : > O       + 1 u >         O O O         X                   O a @.s.#XV..X8X7X8X8X8X3X3X3X7X8X",
"'.`.oX X(.Z.C.C.S.S.j.@.p.+.d p p > X .                         + i > O       + 1 1 X                                         + g e.&X%XM..X3X7X X'.(.(.(.XX2X8X",
"R.}.!.!.!..X.XI.B.%XV.T.T.+.a d a , $ $ X                       O 1 u +         ; >                                         X : f t.*X*XY..X3X(.C.v.V.v.N.P.[.3X",
"Q.D.D.R.|.7X3X(.N.+XB.'._.+.f k f 6 - , X X                       O 2 :                                                     + u g / #X*XY.[.3X(.c.#X#X#Xx.L.XX3X",
"R.R.D.D.!.XX3X(.=X+X=X_._.+.G ^ U B h 7 # X                       X 1 ;                                                     > p a F q.V.S..X2X(.B.#Xc.c.$XC.7X3X",
"V.V.V.V.Y.XX3X.XT.L.T.!.!.e.2.i.t.t.W b $                           + O                                                     : i p s ^ c.V.'.).'.T.L.C.c.$XC.].).",
"$X#X#X#XC.).3X2X(.(.'.W.W.S.$Xa.b.Z.b.m # X                                                                                 > 2 p d ~ +X%XT.'.'.'.].Y.%Xx.C._.'.",
"#Xc.c.x.V.XX3X[.].'.`.!.D.V.x.a.2.u.5.m #                                                                                   + 2 p a ~ +XB.T.].'.'.'.Y.&Xc.C._.'.",
"C.C.C.B.L.Y.I._.'.'._.W.W.D.V.s.J B y $ X                                                                                   O + u a ~ &X*XT.!.`.!.'.~.L.Z.Y.!.'.",
"_.'._._.T.V.c.V._.'.!.W.W.Q.D.m.Y f >                                                                                         + i a ^ *X*XR.R.R.W.W.!.XXXX.XW.Q.",
"'.'.'.'.!.&X#X*X_.(.I.Q.W.Q.M.3.b 7 ,                                                                                         + 2 s ^ *X*XD.Q.Q.W.W.{.7X2X XQ.Q.",
"_._._.T.L.&X#XB.T.(.I.D.S.C.5.N , 1 >             X                                                                         X + 2 p ^ &XC.D.D.D.W.W.{..X2X XD.S.",
"!.Y.*XN.N.$X+X*XY.!.D.V.c.4.' N t u >           O > +                                                                       X X $ t ~ %X&X%XB.*XD.W.W.!.!.Y.V.c.",
"Q.D.&X#X#X+X+XB.-XW.A.x.2.N e y p i >             1 ;                                                                       X X + r ~ #X#X#X#X%XD.W.W.W.Q.S.c.x.",
"D.S.v.c.c.c.x.V.Q.}.D.a.J 7 6 i i > +           O 1 +                                                                         X $ r ~ a.#Xc.+X*XD.Q.W.D.Q.C.c.#X",
"C.S.Y.Y.D.A.V.S.Q.S.Y.s.b 1 i i > X             X 1 :                                                                         X > 8 @.Y.C.B.%X=XS.S.S.C.V.V.$X#X",
"x.V..X2X[.P.Q.W.Q.Q.Q.C.G i i , O               O 1 +                     . X X O X X .                                       . = t &.'.!.C.=X-X*X*XV.$X#X#X$X#X",
"x.V..X3X[.W.Q.Q.Q.Q.Q.M.K p 1 X                 O 1 :                   X # 1 2 2 2 2 1 +   O                                 X 2 a &.'.!.-X=X=X*X*X*X$X$X$X#X#X",
"N.C.I.(.U.!.D.Q.W.W.W.N.G 8 6 X                 O 1 1 +                   $ 2 a a g a p 2 > ; O                               + p g &.`.!.-X*X*XC.-XC.C.V.B.C.C.",
"_.P.C.N.V.D.Q.Q.W.W.S.s.V 8 - X                 O 1 p >               . X > p G I Y K g i i 2 : O                       X X X + g ! g.!.S.&X$XB.T.'._._._.)..X.X",
"(.T.c.c.v.S.W.W.W.W.S.i.V 2 $ $ + X O O         + u p >               X = 2 s &.a.i.$.Z 2 2 i i + O                   X X $ $ 6 I g.W.W.S.$X+X*X_.'.'.`.'.).7X3X",
"'.T.N.c.v.S.D.D.W.W.A.s.K a u 2 2 2 2 > O   O + 1 i p 1                 : r l w.V.c.u.n - , 2 p 2 >                     o < r G j.D.!.!.Y.&X+X&X!.`.`.`.'.).XX2X",
"T.Y.v.#Xc.v.V.A.D.W.W.P.z.K p p p i i i 1 > 2 r r 4 p >                 ; f ^ j.Y.L.L.f.5.N - 2 i 2 > X               X $ 2 a P C.!. X.XU.V.a.v.Y.!.!.!.!.Y.C.C.",
"W.D.c.#X#X#Xx.v.D.W.(.2X2X..a a d a G { l d s d d p 2 +               + > k q.*X_.'.~.!.Q.g.N 6 2 p d z >               $ 8 C w.D.!..X3X.XV.#Xv.D.W.D.W.Q.*Xc.#X",
"W.D.%Xc.x.#Xx.v.D.W.{.7X2X6.K G G L w.H.o.| I C p p >             X + , p k t.C._.'._.Q.W.D.u.y 2 z =.-.d           . O - 8 ! C.W.!..X2X XV.#Xv.D.W.D.W.Q.V.$X$X",
"S.C.V.V.C.S.Z.Z.S.S.I.).[.I.B.j.N.N.C.Y.T.K.B.@.s p > o X   O X X = 2 i g P j.-X~.~.~.Q.W.D.j.V p *.;.-.i         X o - 2 a ~ C.A.D.U.(.I.V.%XV.A.A.S.C.D.=X$X$X",
"c.c.D.D.Q.XX2X(.N.#XC._.(.`.`._.L.c.$X=XC.-X-Xr.V a 2 1 1 1 1 2 i t a d K z.T.~.W.W.Q.W.W.S.t.B p *.-.d O     X > 1 2 8 a l #.&X$X%XV.C.C.*X*X*X$X$Xc.c.c.#X$X%X",
"a.c.D.R.U.XX3X(.N.#XV._.].`.`.`.L.+X+X$X=X=X=Xs.^ g p p a a p p p s f U r.T.'.`.W.Q.Q.Q.D.S.t.k p z z 1 > > > > u d s g g ..z.B.#X+X*X=X*X*X*Xc.c.$X$X$X$X#X$X#X",
"c.c.D.D.Q..X[.U.%X$XC.T.'.'.'.'.Y.=XN.=X=X=XC.Y.B.~ K I T P k a k U ! t.=XT.!.!.Y.D.W.!.W.Y.s.Q g i 2 p p p p p d H ..+.#.z.T.C.N.N.=X=X=XS.D.C.V.N.V.V.N.N.c.#X",
"V.V.c.V.V.Q.|.Y.%X#XV.W.!.W.!.R.!.T.K.-X+X&XY.XX)._.K.K._.^.#.G U i.C.S.Y.!.!.Y.*X&XC..XXXU.V.c.Q j j k G G G C G e.L.W.Y.!.R.I.T.Y.V.$XV.(.XX(.I.P.^.(.).Y.c.#X",
"*X&X&X#XV.D.W.S.%X#Xv.D.Q.R.R.R.T.'.'.L.c.c.I.2X2X).'.'.7X3X^.j.i.c.D.Q.W.W.W.S.c.c.C.XX7X(.C.*Xa.t.t.s.m.N.s.i.i.C.W.W.W.W.W.`.].T.*X+XV.).3X[.].'.).7X3XI.N.#X",
"*XM.%X$Xc.S.D.S.c.c.V.D.Q.R.R.R.!.'.'.C.c.c.I.2X2X).'.'.XX2X).C.x.c.D.R.R.W.D.D.c.c.C..XXX(.*XC.V.c.%XC.D.D.V.c.c.Z.W.W.W.W.R.`.'.T.&X+Xm..X3X2X(.'.].2X8XI.%Xc.",
"T.Y.!.I.Y.D.V.C.A.A.S.D.Q.Q.Q.D.D.C.M.&Xa.c.I.2X2X_.Y.Y.Y.U.P.V.x.v.!..XU.D.V.M.P.P.U.Y.Y.P.T.Y.I.P.Y.Y.V.v.A.A.C.D.W.W.W.W.W.S.L.*X$X+XC.).3X.XT.Y.T.I.!.Z.&X#X",
"'.).XX2X(.v.#XV.D.Q.Q.Q.Q.Q.Q.W.C.$Xx.c.x.c.I.2X[.Y.A.C.C.C.V.c.x.v..X2X(.V.a.C.XX2XI.&Xx.M.`.`.).2X2XY.&X#XS.D.D.W.W.W.D.W.Y.V.+X$Xj.+XV.(.3X.X-X*XC.*XA.&X#X#X",
"'.].7X2X XN.+X%XD.Q.Q.R.Q.R.D.W.*X$X#X#Xx.c.I.3X.XI.*X*X*X=X=X#Xx.V.(.3X(.V.#XC.2X3X(.c.#XC._.'.XX2X2XT.c.x.S.Q.Q.Q.Q.W.W.Q.D.c.+X$X#X#XV.).3X).Y.*X*X*X*X*X#X#X",
"'.].XXXX_.V.#XV.D.Q.Q.|.{.!.S.S.S.v.v.V.v.V.Y.(._.S.V.&X-XD.V.V.v.S.U.[.U.V.&XC.I.(.P.V.&XS.!.'.].7X).Y.c.$X*XQ.Q.!.{.|.D.D.S.V.*XV.V.v.V.U.(.!.-X&XC.-XS.V.S.v.",
"W.!.!.].I.c.#XN.D.Q.!.[.[.I.v.c.C.D.D.D.D.D.V.v.v.c.#X&XS.Q.W.D.D.D.Q.!.Q.D.S.C.V.c.V.D.D.D.!.W.!.].(.L.a.$XS.D.Q. X7XXXC.c.V.S.Y.D.D.D.Z.V.c.c.&X$XV.D.D.*XD.-X",
"Q.!._.'.T.*X+XV.D.Q.{.[.3XI.c.c.V.D.W.W.Q.Q.V.x.#Xc.#X&XA.D.Q.Q.Q.D.R.R.R.Y.D.C.c.x.V.Y.}.D.D.Q.!.'.'.C.$X$XC.D.W..X3X.XC.a.c.D.W.W.W.D.D.&Xa.#X#X#Xv.D.D.}.}.}."
};
