/* XPM */
static char *f8e9be91147b4d71ceece86d79011892A7uVpWfiSOjjybhQ[] = {
/* columns rows colors chars-per-pixel */
"80 80 215 2 ",
"   c #010100",
".  c #090700",
"X  c #060A04",
"o  c #0B0A03",
"O  c #080708",
"+  c #0B0B0B",
"@  c #120E01",
"#  c #0A1106",
"$  c #0D130A",
"%  c #161101",
"&  c #1B1501",
"*  c #181904",
"=  c #11150E",
"-  c #131B0E",
";  c #0F0E10",
":  c #100F10",
">  c #131313",
",  c #151A13",
"<  c #191B17",
"1  c #181718",
"2  c #1C1C1B",
"3  c #241C02",
"4  c #201F1F",
"5  c #1A270C",
"6  c #172214",
"7  c #1C2816",
"8  c #1E221C",
"9  c #2C2202",
"0  c #352A02",
"q  c #362A03",
"w  c #3E3103",
"e  c #222F13",
"r  c #21251E",
"t  c #232B1C",
"y  c #25361A",
"u  c #1F1E20",
"i  c #201F20",
"p  c #222322",
"a  c #252A23",
"s  c #292D24",
"d  c #292929",
"f  c #263224",
"g  c #2A3325",
"h  c #273A25",
"j  c #2B3B26",
"k  c #2B3C29",
"l  c #313B26",
"z  c #343334",
"x  c #433504",
"c  c #4C3C04",
"v  c #503F04",
"b  c #28431B",
"n  c #314E1B",
"m  c #2C541D",
"M  c #3A551B",
"N  c #33581B",
"B  c #2D4225",
"V  c #2D452A",
"C  c #2D4A2B",
"Z  c #324425",
"A  c #384626",
"S  c #314C27",
"D  c #394E24",
"F  c #324528",
"G  c #334B2A",
"H  c #394C29",
"J  c #2C5B22",
"K  c #3B5423",
"L  c #34542B",
"P  c #39562B",
"I  c #365A2E",
"U  c #3A5C2D",
"Y  c #335D31",
"T  c #33622B",
"R  c #3C632F",
"E  c #336B2B",
"W  c #3E6D2B",
"Q  c #3D732F",
"!  c #356231",
"~  c #396331",
"^  c #3A6C33",
"/  c #3D7234",
"(  c #367D34",
")  c #3A7933",
"_  c #5A4705",
"`  c #634E05",
"'  c #6D5606",
"]  c #745B06",
"[  c #476C1E",
"{  c #4B711A",
"}  c #7D6207",
"|  c #415C26",
" . c #466826",
".. c #43652C",
"X. c #446B2E",
"o. c #4B6B2D",
"O. c #49732B",
"+. c #527929",
"@. c #547D2C",
"#. c #446B30",
"$. c #437533",
"%. c #4C7530",
"&. c #457A30",
"*. c #4B7E32",
"=. c #537C31",
"-. c #4A4A4A",
";. c #515051",
":. c #636363",
">. c gray46",
",. c #846807",
"<. c #866907",
"1. c #8F7008",
"2. c #977708",
"3. c #9B7A08",
"4. c #3A8236",
"5. c #43822D",
"6. c #4B832C",
"7. c #4C8B2D",
"8. c #56862D",
"9. c #5C842B",
"0. c #558A2D",
"q. c #5E9427",
"w. c #5B942B",
"e. c #448436",
"r. c #4B8433",
"t. c #4C8B35",
"y. c #468938",
"u. c #428C3A",
"i. c #568832",
"p. c #4E9334",
"a. c #44933C",
"s. c #4A933A",
"d. c #469C3D",
"f. c #4B9C3B",
"g. c #539534",
"h. c #5B9332",
"j. c #549C34",
"k. c #5C9A35",
"l. c #539C39",
"z. c #628E2A",
"x. c #689928",
"c. c #649A31",
"v. c #47A13F",
"b. c #4BA43F",
"n. c #4FA83E",
"m. c #55A434",
"M. c #5CA234",
"N. c #57A836",
"B. c #5BAB36",
"V. c #52A63D",
"C. c #5AA43A",
"Z. c #53AB3E",
"A. c #5BAD3C",
"S. c #5DB037",
"D. c #57B03D",
"F. c #5CB33D",
"G. c #5EB93C",
"H. c #71AC2B",
"J. c #7AB72D",
"K. c #63A333",
"L. c #69A734",
"P. c #6CAD36",
"I. c #62AF3B",
"U. c #67B637",
"Y. c #6BB536",
"T. c #6DBB36",
"R. c #63B43B",
"E. c #6BB539",
"W. c #62BB3B",
"Q. c #60B93C",
"!. c #61BA3C",
"~. c #62BB3C",
"^. c #62BC3C",
"/. c #6BBB39",
"(. c #6DBA3A",
"). c #73B433",
"_. c #75BD34",
"`. c #74BC35",
"'. c #7ABD35",
"]. c #71B639",
"[. c #74B939",
"{. c #76BA38",
"}. c #78BA38",
"|. c #7EC42F",
" X c #6EC137",
".X c #65C13A",
"XX c #69C139",
"oX c #74C235",
"OX c #7AC232",
"+X c #7CC332",
"@X c #71C038",
"#X c #3D9841",
"$X c #449F40",
"%X c #45A040",
"&X c #46A140",
"*X c #48A240",
"=X c #49A240",
"-X c #4EA840",
";X c #54AC40",
":X c #55AD40",
">X c #58AF40",
",X c #B48E0A",
"<X c #BB930A",
"1X c #C59B0B",
"2X c #CDA10B",
"3X c #D4A70C",
"4X c #EBB90D",
"5X c #F2BE0D",
"6X c #83C62E",
"7X c #85C82D",
"8X c #85C82E",
"9X c #8CC92E",
"0X c #91CD2D",
"qX c #82C631",
"wX c #84C832",
/* pixels */
"*Xb.D.W.~.~.^.F.-X&X*Xb.b.*X$X*XC.OX7X_.n.&XZ.G.~.D.*X*Xb.v.b.F.~.G.Z.b.b.F.G.G.Z.v.V._.7X_.Z.v.n.G.^.^.^.~.:X-X&Xb.*X*X*Xb.b.U.7X+XR.&Xb.G.^.G.Z.&X&Xb.v.n.F.W.",
"&Xb.D.~.^.~.^.G.-X&X*X*X$X$X*X$XA.OX7XT.n.v.Z.~.G.D.*X*Xv.v.v.Z.^.G.n.v.b.D.^.G.n.v.V.oX7X'.Z.v.n.F.^.~.^.~.D.*X&X&X&X&X&X&Xb.Y.7X6XR.d.v.D.G.G.n.&Xv.&Xd.n.G.W.",
"&Xb.A.G.G.G.~.F.:X&Xb.*X*X-XV.*XA.OXOXT.V.b.Z.G.^.D.n.b.b.n.Z.A.F.G.n.b.b.G. XW.Z.V.B._.|.`.Z.d.-XD.G.G.~.R.A.b.&X*X-Xb.b.&Xn.U.|.OXR.*Xn.D.^.G.Z.*Xb.n.n.Z.F.F.",
"&Xb.-X-XZ.>X>X>X:Xn.Z.R.E.P.E.E./.T. X/.F.G.G.G.^.F.G.F.U.`._.A.n.n.n.Z.Z./.OXOX_._.T.R.B.V.b.v.b.-XZ.Z.F.:X;X;XZ.A.R.E.E.U.E.E././.~.G.G.G.^.~.G.D.R.T.`.T.A.V.",
"&X&X$X$X*X-X:X:X;X;X>X].[.}.[.}.].~.^.~.^.~.W.W.~.~.^.~.oX7X6XR.*X$X-X;XF.oX6X7X7X9X|.V.v.v.v.v.&X&X&X*XZ.:X;X:XF.R.[.[.}.}.[.E.~.~..X^.^.~.~.~.^.~./.'.7XOXV.b.",
"b.b.b.b.b.Z.>X>X;X:XA.].[.[.[.[.].~.^.^.~.~.~.^.~.~.~.~.oX6X|.R.*X$X;X;XA._.qX6X6X7X'.V.v.v.b.v.&Xb.*X-XZ.>X:X:X;XR.[.[.[.[.[.(.~.^.^.~.~.~.~.~.~.~./.+X6XoXV.b.",
"R.R.A.A.A.I.R.I.;X;X:X~.(.].(.(./.~.~.G.Z.D.D.W.~.~.~.^.W.Y.Y.U.I.A.R.R.R.E.Y.Y.'.'._.G.Z.Z.R.U.R.A.I.I.R.R.>X:X-XA.(.(.(.(.(.W.~.:XG.D.D.~.~.~.~.~.~.~.Y.U.A.A.",
"6X|.'.[.[.[.[.E.V.$X:XA.W.W.W.W.~.R.R.Z.b.b.Z.W.~.~.~.~.Z.b.b.A.}.[.[.].].V.b.n.Y.[.[.^.G./.OX7X+X[.).[.[.[.E.*X$XA.R.W.W.W.^.R.R.F.-Xd.Z.Z.^.~.~.~.G.Z.b.V.E.}.",
"7XqX'.[.[.[.[.E.;X$X-XF.~.~.^.^.~.R.F.D.*X*XZ.G.~.~.~.^.Z.&X&XR.[.[.L.z.=.$./ / h.].[.(.W./.|.7XqX[.}.[.[.[.U.*X*XZ.G.m.t.*.r.t.A.F.:Xf.*X>X^.^.~.~.F.n.b.V.E.[.",
"'.oX[.[.[.[.[.E.Z.$XV.~./.~.~.~.~.D.>XA.A.Z.F.^.~.~.F.D.Z.*X&XI.].E.i.H s d a f U h.K.R.W.W._._.oX[.[.].].].I.b.*XZ.M.O.j s s G r.V.V.Z.Z.G.G.~.~.F.D.-X$XV.E.[.",
"Z.V.R.W.W.W.W.W.;X$XV.`.|.oX/.^.F.Z.n.A._.OX_.~.G.D.n.n.-X&Xv.D.W.R.U a p i 2 p a B T l.G.G.Z.n.A.G.(.^.^.W.D.n.*Xm.+.Z a r p a V Q M.+XOXT.~.~.Z.n.V.*X*Xb.G.~.",
"v.b.D.W.^.~.G.G.V.$XV.'.7X|./.W.A.b.$XC.+X7XOX^.^.D.b.&X&X&Xb.Z.W.B.P p 2 ; + > i 8 f W m.G.n.$XZ.F.W.^.^.^.D.b.f.j.+.t i 1 1 p f T w.J.|. X^.G.Z.$X$X$X$XZ.G.~.",
"&Xb.Z.G.~.F.~.G.;X4./ @.9.@.O.&.$.^ ^ *.J.6XoXW.~.D.n.b.b.b.b.F.~.A.P p 1     + 1 u a B 5.D.-X&X-XG.G.G.~.G.D.*X=Xr.D a 8 $ + , p B O.x.H.Y.G.G.Z.b.b.b.&Xn.G.~.",
"*Xb.n.Z.Z.Z.Z.Z.f.^ k h g g g g g j g H c.+XY.Z.Z.F.Y.Y.~.F.Z.Z.V.y.F 2 > X     O > u a L e.d.4.d.b.V.f.f.b.n.n.u.P a u - X   . 2 p y { q.A.m.Z.U.Y.Y.F.D.D.Z.Z.",
"*X*X&X&X*X*X$X$X/ k a f a r a 8 t s s z h.).I.b.v.R.6X7XoX^.^.Z.u.C a >           O 1 u a B T ( ( ( ) E E ( 4.s.U g p 1 +     O 1 i 7 y w.V.v.n.`.7X+X/.~.F.-X&X",
"*X*X&X*X*X*X$Xd.! a a y 6 $ + $ + + , i | =.M.b.v.R.6X6XoX^.^.Z.u.h p >             O 1 p a f h h h h B h V G G g p > +         . , 2 Z w.V.v.n.`.7XOX X~.F.n.$X",
"&Xb.Z.A.A.A.C.$.F r , 6 #         X , a s D *.f.b.F.oXOX/.F.D.Z.y.j > O               + + > 2 p 2 u p p r a a s s 2 +             + > Z 0.V.&Xn.Y.OXoXG.D.A.-X-X",
"&Xb.Y.qX6XP.8.F r = X             X = 7 p s ! d.v.Z.~.W.Z.b.&XZ.s.j :                     X > > > > > > 1 6 t t r $                 > B 7.f.&Xn.G.^.G.Z.*X-X:X;X",
"$Xn.Y.7XwXc.H a > X                   $ < p L u.v.Z.G.~.Z.b.d.b.&.h +                           O   X   X $ e 5 #                   : Z p.n.d.*XF.W.F.Z.$X*X:X:X",
"*Xb.Y.+X+Xz.l i $                     X = 8 I f.n.Z.F.F.D.Z.Z.e.G p +                                     X X o .                   : Z p.Z.*XZ.F.G.F.Z.V.Z.A.>X",
"&X*XZ.R.R.i.g : X                     X , p U A.F.D.Z.n.R.`.'.i.s i +                                                               : B p.F.F.G.Z.b.V.T._._.].E.",
"*X$X;X;X$XR p +                     O : 2 a R G.~.D.b.b.U.6XqX9.a > X                                                               > g X.N.W.G.n.d.V._.6X6X'.[.",
"*X*X:X:X$.h 1 O                     : 2 p Z *.G.~.D.&Xb.U.6XqX9.p O                                                                 : p B g.^.G.n.&XZ._.7XqX}.[.",
"Z.A.D.D.$.r O                   X + 2 a Z 8.Y.W.~.Z.&Xb.R.'.).=.t .                                                                 ; 2 j g.^.G.n.&Xn.].+X'.[.(.",
"^.~.~.~.$.4 .                     > p j 9.H.oXG.~.D.b.b.A.].9.A a X                                                                   ; g h.W.~.Z.&X-XE.[.[.~.^.",
"^.~.W.W.$.r X                   X > 4 6 M { q.~.W.D.v.v.A.).o.a , X                                                                   + g h.W.F.Z.$Xb.E.}.]./.~.",
"^.^.W.W.&.2 .                 X   > 2 > - e  .~..XS.n.V.R.E...2 #                                                   . @ @ .           O y g.W.W.Z.n.Z./.[.(.(.~.",
" X X(.W.&.r +                   X > p 8 a t U j.N.B.G.G.^.U.X.6 $                     . . o . .                     & c c 3           + g g..X.X^.~.^.(..X.X>XQ.",
"oX XXX^.&.a 1 O                 X > > > < p g S K 5.S..X.XG...8 $                     3 x 0 3 0 3                 . w 2.,X_ o         O y p..X.X.X.X.X.X.X.X>X>X",
" X XXX.X6.g 4 O                   X + X $ , 6 a g Q N.G..XU...8 #                   o ` ' 9 0 ] ` &               o 9 ` 1X1X` .       + f f..X.X^.^.^..XXX^.>X>X",
"F.G.T.oXc...t +                     X   X X $ 8 t S ) d.S.T. .6 $ X                 . v _ % & ` ,.` o             w c 3 ] 3X3.@       + f g..X^.D.n.Z./.`.[.(.(.",
"n.D.T.wXqXc.g : X                           X $ < t C 4.B._.o.t -                     . 9 w o @ ,.<Xx o           c ' @ % 3.3.o       + g p..X^.-X4.b.T.+X+X].}.",
":X>XT.wXqXx.l 2 = X                             X < C ( C.J.o.t 7 +                   @ ` 1.& . ,.4X<X0           @ % . @ ,.,..       + g g..X^.-X#X&XT.}.}.}.[.",
"D.>XXX+XqXL.A s , X                             X , C e.P.6X{ t a > X               . ` ,.c o . } 5X3X0           o @ @ 3 w 3       + 8 F k.@XXX>X*XZ.`.wXqX].(.",
"^.~. XoXoX).9.K e * o                             1 L p.[.7Xx.n p i +               . x c % . o ] 4X2X0           x } ' 0 @         : k $.P.oX@X~.>XE.+X0XwXR.>X",
"^.~.XX XoXOXJ.z.M e 5 X                         X 1 L g.).6X6X8.7 i : O                 . o . . _ 3.,.3     O     c 2.,.3           : F C.@X+X+X/.R.~.wX0XwXF.:X",
"(.XX XoXoXOX|.`. .t 5 +                           1 L 0.Y.H.J.0.y g r :                         . % @ .   X : O   o % @ .   O X     : F C. X+X+X(.R.(.+XwX+XE.F.",
"OX+X+X+XOX`./.U.X.a 8 1 + X                     O 1 Z 6.K.h.k.K.q.8.A :                 O                   O 1 O         : 2 > O   > V f._.wXOX[.(.(.(.(.(.oX}.",
"7X9XwX7X|./.F.D.#.f s p 1 > ;                     1 g D ..L P K M [ j >               : > > > 1 +           X 2 +       O O : : > 1 2 V s.`.7XqX+X}.].R.~.(.+XwX",
"wXwXwXwXqXT.~.R.g.#.U h p p 2 = X                 1 r a f p 8 1 > 2 i >         O + : 2 i > 1 > +         O + 2 +       O + O O > i p V d.T.wXqX}.[.].(.Q.~.+XqX",
"wXwXqX7XqXOX`.@X}.`.K.U C k a r +                 > 1 8 r < 1 2 2 i 2 +       X : u 2 2 >   O O O X       X : > X     O > u 1 + o < p k e.A.oXT.U.I.R.(.@X[.'.+X",
"7XwXwXqXqXwX+XwXqX7X`.l.4.^ j p +                   + X + X O + 1 2 + O       > u 2 + O       > 2 >         O           X > i 1 , 2 d f G p.^.~.-X&XV.`.wXqX}.}.",
"wXwX7X6XwXwXwXwXqX7XOXZ.v.f.$.f +                               O +         > i 2 +       O > : + O                       O > p 8 p H I k s.~.G.V.$X-X_.wX+X'.[.",
"qX6XOX_.`.`.`.oXOX7XOXC.-X-Xs.f +                                         X 1 2 +       O > u +                         X X > p p d #.s.$.l.D.F.A.A.F. X+X+X[.[.",
"6X6XR.Z.n.Z.n.C._.7X|.R.:X:Xu.f : X                                         > +         + i 1 O                       X # $ , r d s #.E.P.A.n.V.T.|._./.~.(.W.W.",
"7X6XA.&X&X&Xv.n.`.7XOX~.;X-X/ s i +                                                     > 2 O                         # , , 6 f k d #.].(.Z.d.n.[.7X|. X~.~.^.^.",
"qX+XA.*Xb.b.b.Z.`.6X'.R.;Xe.G a p :                                                     + 1 X                         # 7 h V Y / C #.].(.A.b.V._.7X+X XF.~.~.R.",
"'.'.A.$Xb.C.R.E.[.'.[.>X*X/ d p p :                                                     O +                         X $ b Q y.u.$X&.s.R.E.E.I.U.OX7X|.F.Z.:X:X:X",
"[.[.C.d.b.U.[.}.[.}.E.;X%X^ d u i :                                                                                   $ m m.F.b.d.v.D.^.^.T.}.}.7X6X|.V.*X*X$X*X",
"[.}.A.*Xn.U.[.].].}.E.-X$X^ d u 2 +                                                                                   # m 7.7.4.d.b.D.G.^.[.[.'.+X6XOXA.$X*X*X*X",
"/.].E.A.R.U.[.(.].].(.;X&X^ a i $ X                                                                                     $ t b T f.Z.F.^.^.T.[.[.[.Y.Y.A.C.A.:XA.",
"^.^.oXqXOX(.~.~.^.^.W.A.:X#.a i +                                                                                         = y T N.^.^.G.^.[.[.].C.n.V.E.].].}.[.",
"W.W.OX7X|.T.G.W..XG.G.>X;X$.a u +                                                                                         , 7 b 5.B.~.^.~.[.[.E.Z.v.V.E.[.[.[.}.",
"G.W.oX|.OXXXW.W.F.F.G.;X;X^ p 2 $                                                                           X             1 1 6 N 7.B.G.F.(.[.(.Z.v.-XI.E.].].[.",
"b.Z.~./.XX^.^.G.D.-X-X-X=X^ 8 = #                                                                         + > O           1 2 t M [ 6.b.Z.F.W.R.Z.v.b.V.V.A.E.^.",
"b.b.A.~.^.^.^.W.n.&X%X&X&X^ r + X                                                                         + 1 X           > u p y e m 4.b.F.~.G.n.v.&X$Xd.-XG.G.",
"*X=XA.~.~.~.W.R.n.*X&Xd.*X^ p + X                                                                         ; 1             O > i u 8 7 J d.D.^.G.n.b.b.b.b.n.G.~.",
"*X&XZ.Z.A.F.F.A.Z.-X:XA.I.$.t $ X                                                                         ; 1 O             + > u u < b b.F.~.G.D.Z.D.U.U.R.A.Z.",
"*X*X*X$X*X:X:X:X;X:XD./.}.=.t , X                                     O O X X O O X                       + 1 O               O 1 8 p C B.^.~.W.G.~.~.+X6X_.V.b.",
"&X&X*X$Xb.;X:X:X;X;XF./.[.+.s 2 +                                     + , 1 2 2 2 , $ .                   > 1 O                 X 1 p H B.^.~.W.^.^./.+X6XOXV.b.",
"C.A.Z.Z.:XA.>X>X:X-XA.(.].=.g p + X                             O > > 1 a a s a p 4 + X                 + 1 1 O                   - t G V.G.W.W.^.^.W._._.Y.A.V.",
"+X+X[.].].}.[.E.Z.$X;XF.W.k.R s + X X                         O + 2 p p g H I R G a = O                 1 i 2 O                 X - 7 V f.G.W.W.^.^.G.Z.V.Z.E.].",
"7X6X'.}.[.[.[.].;X$XZ.F.W.W.l.U 6 $ $ X                     O : 2 p 1 2 B &.a.b.=.s 2 = X               1 i 2 +         O O + X $ , 2 V a.Z.^.^.^.^.G.n.&Xn.).[.",
"6X+X'.[.[.[.[.E.V.$Xb.G.(.W.W.j.F 8 < #                   O : u i 2 = 5 n p.b.n.r.j p =                 1 p i 1 + X   O > 2 2 2 2 p p S f.~.^.^.G.G.B.n.&XV.E.[.",
"A.R.~.(.(././.R.Z.$XV.T.OXoX/.A.U a 8 # X               X ; u i 1 , N 7.g.I.U.I.l.$.s +                 > p p p 8 1 1 1 4 p p p p p K c.Y./.~.G.D.n.n.b.&Xn.G./.",
"b.*XF.^.~.~.^.F.n.$XZ._.7X+X/.G.r.V 8 $               > z d i 2 6 J m.^.W.[.[.].Z.u.k 1 +               + < p p d s s j | Z a p p d o.6X6XT.~.G.n.d.b.v.v.b.G.~.",
"$Xb.Z.W.~.~.^.G.Z.&XV._.7XOX/.^.A.! 8 = o .           a :.;.z 2 e j.~.~.W.[.[.].-Xu.k p 1 + X X           1 p d G U | +.K.r.U H C Y i.6XOX X~.G.n.v.v.v.v.n.G.G.",
"&Xb.Z.Z.D.D.D.D.Z.b.Z.(.`.T.G.D.C.^ a 8 = + X X       2 :.>.-.p Z f.G.~.W.(.(.(.I.l.P f i 2 $ X X O X O X > p f $.C.P.E.~.A.V.l.C.C.P.'.OXU.A.F.G.S.B.Z.Z.Z.D.G.",
"*X&X&Xb.-Xb.*Xb.Z.;X;XZ.A.A.-X$XZ.&.l i i 2 2 > X     + d :.-.d k u.G.~.~.~.^.^.(.].c.L d p a 2 1 1 1 1 1 2 a k y.>X>X>XZ.*Xn.A.[.[.[.}.].A.&XV.`.|.|./.G.D.n.b.",
"*X&X&Xf.*X$X*X*X;X;X;X;X:X:X*X$XV.c.o.l s d a 4 > > > > 2 z z i k u.D.~.~.~.W.U.].}.E.y.Y g s a a a a a p u h $.V.:X:X:X-X*X*XI.[.}.[.[.].A.$Xn._.6X|./.^.G.n.&X",
"*Xb.Z.V.V.V.V.V.A.F.A.:X;X-XZ.V.A.(.c.%.o.o.H d p p p p 2 u i g ! f.G./.W.W.G.G.(.[.(.:Xe.^ Y g a k U ~ U P ^ C.:XA.:X:X-XV.V.I.].[.].].(.A.$XV.`.|.OX~.G.D.n.*X",
"&Xb.R.OX_.[.E.E._.OX[.A.&X-XR.(.E./.~.R.R.R.t.C C F S H k j k ! f.Z.T.+XOXF.n.Z.R.W.R.W.>XA.a.! H o.).Y.P.P.Y.'.OXU.V.*XA.E.E.E./.W./.~.R.Z.&X*X~./.W.Z.n.Z.:X-X",
"&Xb.T.6XqX'.[.'.qX7X'.C.%XV.E.[.[.W.~.~.^.^.C.a.a.f.V.N.l.u.u.f.;XZ.`.7X+XA.v.b.F.~.^.W..XG.-X4.l.).6X+X[.[.+XqXqXY.V.b.I.[.[./.^.^.^.^.F.Z.&X-XG.^.F.n.&Xb.Z.>X",
"$Xn.Y.6XqX}.[.[.qX7XOXZ.&XV.E.].[.W.~.~.^.^.F.b.*XZ.G.G.Z.b.*XZ.F.Z.T.6X+XA.v.n.G.~.W.W.^.G.-Xv.A.OX6X+X[.[.'.qX9XE.n.d.A.].[./.^.^.W.^.G.Z.&Xb.D.G.G.n.*X*XZ.>X",
"$Xb.R.T.E.E.R.E.OX7XOXV.&Xb.Z.C.F.~.W.~.^.^.G.D.D.:XZ.Z.F.Y./.U.U.E.U.R.R.Y.Y.Y.A.Z.D.T.oXT.n.d.Z./.[.E.E.F.[.qXqXY.b.v.n.A.C.G.~.~.^.W.G.G.D.D.Z.Z.Z.U.Y.U.E.E.",
"*X*X-XA.>X:X:XF.OX7XOXA.v.b.b.b.V.Q.^.W.^.^.^.^.~.D.b.b.U.|.6X'.[.[.C.b.Z.T.6X'.A.v.Z._.wXOXZ.v.*XZ.Z.Z.D.Z.U.+X6XY.b.v.b.b.b.D.~.~.W.^.W.^.^.F.n.v.Z._.7XqX[.[.",
"*Xb.-X:X;X;X:XF.oX7X_.V.v.b.v.v.b.W.W.W.^.^.^.^.^.D.&Xd.U.6X6X'.[.[.V.d.b.[.6XOXZ.v.Z._.7XoXZ.v.*X:X:X:X;X;XU.6X6XY.b.d.b.v.b.Z.~.~.W.W.W.W.^.G.Z.v.n._.7X6X}.[.",
"n.V.D.D.:X;XZ.Z.Y.}.T.Z.n.n.n.n.Z.F.Z.G./.T. XG.^.D.*Xb.U.'.qX'.[.T.F.Z.Z.Y._.T.A.n.Z.T.OXoXA.n.Z.D.G.>X;X;XR.Y.].U.Z.n.n.n.Z.D.>XF.W.oXT.W.^.G.n.v.n.[.6X'.[.[.",
"G.G.G.^.~.Z.*Xb.n.n.Z.D.G.G.G.G.D.n.Z.A.+X6XoXW.~.>X*Xb.A.[.[.[.(.^.~.G.F.Z.V.Z.A.F.G.U.W./.G.G.G.~.~.D.b.&Xb.n.Z.Z.G.G.G.G.G.D.-Xb.Y.+X|. X^.G.n.v.n.E.[.[./.W.",
"~.^.G.^.G.Z.&X&Xf.v.b.G.W.W.^.^.F.b.b.A.+XwX+X^.^.D.*Xb.A.[.[./.^.G.^.^.G.Z.&X*XD.F.W.W.^.^.^.^.^.^.~.D.v.&X&Xv.v.Z.^.^.^.^.G.Z.*X;XY.7X|. X^.G.Z.v.n.E.).[.^.^."
};
