/* XPM */
static char *ad7bd72a96984e00e1295ea9766fc8fbTQIBFuehNoUuiakW[] = {
/* columns rows colors chars-per-pixel */
"80 80 101 2 ",
"   c #47A13F",
".  c #4BA43F",
"X  c #4FA83E",
"o  c #51A63E",
"O  c #54AB3E",
"+  c #5BAD3C",
"@  c #57B03D",
"#  c #5CB33D",
"$  c #5FB93C",
"%  c #61AF3B",
"&  c #66B437",
"*  c #6AB637",
"=  c #67BA37",
"-  c #6DBC36",
";  c #62B43B",
":  c #6BB53A",
">  c #60B93D",
",  c #62BB3C",
"<  c #63BB3C",
"1  c #64B93C",
"2  c #61BC3C",
"3  c #62BC3C",
"4  c #63BC3C",
"5  c #69BA3B",
"6  c #6BBB3A",
"7  c #6BBA3B",
"8  c #6FBA39",
"9  c #6EBB3A",
"0  c #6EBA3B",
"q  c #74BC33",
"w  c #76BE33",
"e  c #70BB34",
"r  c #71BA35",
"t  c #72BB35",
"y  c #73BC34",
"u  c #73BC35",
"i  c #70BC37",
"p  c #74BC34",
"a  c #74BD35",
"s  c #76BD34",
"d  c #7ABE35",
"f  c #71B739",
"g  c #72B839",
"h  c #72BA39",
"j  c #71BA3A",
"k  c #75B939",
"l  c #76B938",
"z  c #77B938",
"x  c #76BA39",
"c  c #78BB38",
"v  c #7CC32F",
"b  c #7EC52F",
"n  c #7FC62F",
"m  c #6FC036",
"M  c #6EC037",
"N  c #65C039",
"B  c #6BC138",
"V  c #77C032",
"C  c #70C135",
"Z  c #74C135",
"A  c #75C234",
"S  c #7AC131",
"D  c #79C331",
"F  c #7BC033",
"G  c #7EC330",
"H  c #7EC133",
"J  c #7EC530",
"K  c #78C334",
"L  c #3E9A40",
"P  c #429D40",
"I  c #45A040",
"U  c #47A040",
"Y  c #48A140",
"T  c #49A240",
"R  c #48A340",
"E  c #4AA340",
"W  c #4FA940",
"Q  c #50A940",
"!  c #54AC40",
"~  c #54AD40",
"^  c #56AD40",
"/  c #55AE40",
"(  c #58AF40",
")  c #5AB040",
"_  c #81C52D",
"`  c #81C52F",
"'  c #84C72E",
"]  c #84C82B",
"[  c #83C82D",
"{  c #85C82D",
"}  c #86C82D",
"|  c #86C92D",
" . c #84C82F",
".. c #8CCA2F",
"X. c #90CC2E",
"o. c #81C530",
"O. c #80C531",
"+. c #83C630",
"@. c #82C631",
"#. c #84C831",
"$. c #89C931",
/* pixels */
"Y . @ < 4 $ 4 ) ^ U . U . . U U O v ] w o   O $ , @ . .     . @ $ $ O     # $ $ O Y . - _ d + P . # 4 4 4 4 @ W Y U Y Y Y Y . # J O.- . . O N $ @ U U R   . @ 2 ",
"U . @ 4 4 < $ $ X U Y Y I U U U o b ] w .   X $ , @ . U       O 2 $ @   . @ 4 $ o   X w  .v +   . # 4 4 4 < # R U R P . Y Y . + O._ : . . O $ $ ^ U U     . # 4 ",
"U Y + $ $ $ < # ^ R R R W R R . + Z n r o X O $ 4 @ . . . O o o $ $ O . . # 4 6 + o + * b q o P . @ $ $ < < O W R R X . o . . ; n n 5 X . O 2 $ @ . . X . o # ; ",
"Y . . W Q + ( ( O W O ; : & : : * 7 7 7 # # $ , 4 < # @ & w a ; X X X X O = A v q q r : + + o . . X X O @ ) + Q X O ; : & : & * - - 4 # @ < 4 , $ # # 7 a w + o ",
"  U U U . . ^ ^ ^ ^ + 0 x l x l f < < < 4 , , , 4 4 , 4 Z [ _ * W P W ( O a #.[ +.| O.+   P         P . O O ^ Q ^ % f x x l l 0 < < < 4 4 $ 4 $ 2 2 4 S  ._ +   ",
". . .   . O ^ O ^ ^ @ g x l g x x < < < , , , 4 $ , , 4 M n _ : . P W O @ a _ #.O._ d % U . . .   .   . O ^ ^ ^ ~ # f x l l l : < < $ ; 4 < 2 $ , , 4 A _ _ + . ",
"; ; + + + % ; ; ^ Y O ; 0 0 0 0 0 < $ $ @ @ # 2 4 2 , 4 , * * & + + % ; ; : : - q J w ; O O # & ; + + + ; ; % ! W + : 0 0 g 0 7 $ < # @ @ @ , , $ , , , : : ; + ",
"_ n d x x f x : O P W # 4 < , , < $ < o . . O 4 $ 4 < $ @ . . + x c f x x @ . R & w l 7 , , Z n v d x l l l : W P o $ < < < < $ $ < @ . . O , 4 2 2 $ O . . & l ",
"+.#.F x x x c : + P . @ 4 4 4 $ , $ # + Y Y O @ 4 $ 4 4 @ Y P ; l l x x l O . Y % x l : 4 0 n ] J F x x x x : X Y O , , , , $ 2 < $ o P Y + , , 4 $ # O . . % l ",
"d A a x 0 g x : O P . ; B 6 4 4 4 + @ + O O + 4 4 $ < # O Y Y @ : f g l f + o + % f : ; 4 4 Z w d s g g - j ; X P O 4 7 4 4 2 ; @ + + O O @ , , < < # O . . & g ",
"o o ; 4 4 4 N $ ^ P + s [ A 6 $ ; O . + w d a 4 $ # o . Q Y   O < < < < < 0 : : + . o # 2 4 O O O < $ 4 4 7 @ . Y O S J D 4 2 # X . + d J 9 2 , o O o . P . # 4 ",
". . O < 4 < $ $ W P o s [ n 5 N # . P + J ' S 4 4 @ . P Y Y   @ ; < < < 4 g c g + . . # 2 @ O U R @ 4 4 4 4 $ . U + J  .D 4 $ # .   ; ' ' A 2 , O U P U P . # 2 ",
". . O $ $ $ $ $ O   O Z  .D 6 $ # o . + n  .K 7 $ # . . .   . O < < 4 4 4 0 r f + . o + , @ O Y O @ < $ $ $ @ . . + S  .Z 2 2 # o Y ; _ _ Z 2 $ O . U . . . @ $ ",
"U . X O O O @ X X . O ; - ; @ O O + % : z d 0 O O # * * & @ @ @ O Q @ < 4 7 7 0 : % % O O O . Y R O O O O O @ W X + ; 9 ; O O O % % : d S * O O ; - * # @ @ O O ",
"U U . U R U U . X O ~ ~ O O R . o f l l z l & .   ; J _ A = 2 O U   @ 2 2 2 2 , 0 l f + . U   Y U R U Y U R . ( o O O O o . . + : x x l x % .   * _ [ Z 4 , O Y ",
"Y U U U U U U R ^ O O ~ ~ O .   o f x l l l & .   + n [ Z 2 2 O U . @ 4 $ 2 < < 0 l f o U U P Y U R U U U I . O ) O ^ O . . U + x l x l x +   . * [ n M 4 $ O Y ",
"U . O + + + o + ; : ; + o O o + + : g g j g ; R   @ A A - # # O . o # - - & # # : r 0 + X X R U . o + + O + + ; * @ O X o + + + 0 0 g g g + R . ; J S , # + O . ",
"U . * b w l r l d _ s o U o & f : : < < 4 4 ; R   @ 4 * # . . O O O - _ n ; . X # , , , $ # X I O - n n l r l w O.s o   O : g : 0 < 2 , < + Y R @ 4 , + . . X Q ",
"U X -  .' w x z O.' w + U O : l x < < $ < < # R . X , 2 @     X O O - ] _ #     @ 4 2 2 4 $ X U o w  ._ z l d ' ' l o   + f x g , , 4 2 2 @ Y R @ 4 , O Y U W ^ ",
"U . * J O.l f w O.] b + U . : 0 0 , < < < < # O . O @ $ # X X o ( + - n d ; X o @ < 2 4 4 4 O I o r J b l f c O.O.w o   o : r 0 2 2 < 2 $ @ . . + # $ O o o O ^ ",
"P W + ; ; ; + ; D  .S o I . o O @ ; 4 N < < < @ # @ o X ; r r f 0 : % + + * w - + o + - F s + U . # ; < % + ; b  .a o Y P + + + $ $ 4 2 2 # # # o O O & a a g 0 ",
"Y U O ~ ^ ^ ^ ; w  .d + U R U R W 4 $ $ < $ < 4 2 # .   ; _ ' O.x l + . . * ] n + . o -  .S + U . O ^ ^ ^ ~ ; w  .s . Y Y P Y o 4 4 $ 2 2 2 2 2 O U . - _ J d x ",
"Y Y Q ^ ^ ^ Q ) w ] S @ U   U U X # $ 4 4 $ < 4 < @ .   ; G  .d x x + . . * _ n +   o r  .G @ U . O O ) ^ ^ ; G  .w O Y R Y P O $ $ $ < 4 2 2 2 @ R   - [ O.d x ",
"O O @ # + ^ W ^ ; * & @ O O @ ~ O @ @ # - Z - 4 $ + . U % d d w 0 9 & o o ; * * + X + = A s # o O # # O ^ W O ; * & @ O O O O + @ @ & Z A - 2 $ O R . ; d O.x 0 ",
"< < < , $ O U U R R X # 4 ) 4 $ # X   + S _ A 5 4 @ R   O a x g , , < < # ~ . . + ) $ < < < < $ $ < 4 # o E P W . O @ 4 < $ $ @ . . # n n w = $ O P . ; x s 7 < ",
"4 4 2 $ $ O U U U I . # 4 4 N $ $ .   O J [ K 4 4 # .   + x x 0 , $ < 4 < o U . ^ < $ < $ < 4 4 4 4 4 @ Q P Y P   X ; < < 4 2 @     ; ] ] Z 2 $ O P . ; x g : < ",
"4 4 4 $ $ O W W . W O # 4 < $ $ # .   o s n A 4 $ # X X # a g 5 , < < 4 $ @ X X + @ @ < < < < 4 4 $ 4 < o R Q W . O < < ; , , O     + A v M 2 2 @ O O ; g g 5 < ",
"M M N = 4 $ ( ) @ ( @ # # # @ @ o P L . # ; 4 4 N N $ $ 4 5 5 4 @ # @ + @ # # @ ~ ^ ) # $ ; - B B N N 4 @ @ ) @ O @ @ < # @ @ X P L W ; @ - N N < , $ 4 B 5 < ) ",
"M C B N N $ ) ) ) # ) ) $ ) ~ W X L L U ~ @ # N N N N N N N N $ ) ( ) ^ @ ; < ; @ O W @ $ $ B Z M N N N $ ) ) ) ) ) ) @ @ ~ W . L L U @ @ $ N N N N N N N N ) ( ",
"C M B N N ) < ) ) # $ ) # ) ( ( . P L U ~ # $ N N N 4 N N N N $ ) ) ) ( ) $ 4 ; @ W O @ ; $ 6 A M B B 4 < ) < ( $ < ) ) ) ^ ^ . P L Y ) # # N N 4 4 N N N B < ( ",
"$ $ - A A M M M 4 $ $ @ ) ( ) ) @ O X ^ # $ $ 4 N $ X . # Z Z - : < < : : 0 6 - ; O ~ + ) ) @ # ; M D M M a 7 < < $ @ ~ + ) @ ~ W W ~ ) # $ N N @ X X , M M 0 : ",
"O O - #.#.J #.A M 4 $ O ~ O # # $ # $ # # ) $ 4 N @   L O D S a l x x s x d K A < ) @ ~ ~ ~ O O # A #.#.#.#.A 5 $ $ ~ ~ ) ) < $ ; < $ < # 4 N N X L P & d S x x ",
"Q ^ B #.#.#.#.n Z 4 # + W ^ ) < $ < 4 ) > $ ) N 4 + P P ( K O.c z z c c c S F A , # + o O O O W + Z #.J O.#.K B 4 ) ! Q ( # < ) $ < $ < ; $ N 4 ( L P ; d G c x ",
") ) B K A G #.n Z B 5 # + ^ + @ ) ) ) ) ; 4 4 B B ; P W ; F #.K : : : : 0 x F c & # # < ; ; @ ( # Z F O.#.#.K M B 5 # ! + ^ + ) @ @ ; ( ; < B B ) R R : O.O.x 0 ",
"< 4 B K F J  .#.J J F 4 ) @ W Y W ~ ~ ~ ) > 5 A K 9 # # g $.$.c # + ( < < 0 c x , , 2 a s x 7 $ N B Z A J #.#.[ J A < # + W R Q ~ O ) ) ( 0 F K 5 ) ( A | $.0 + ",
"4 4 B B A A  .[ #.[ O.< < # Q Y P Q Q ~ ; > j K G M ) < A $.$.x ( ! ( # ) 5 x x 7 ; , A J A 7 N N B Z K _ [ #. .#.G < < ^ Y Y R O W @ < > 0 A K 9 $ 4 H X.$.5 ^ ",
"5 B B Z Z D _ J O.O.S 4 ) @ Q Y Q Q O ( # # : F J B 4 < j #.$.Z # @ # @ ; 0 a x 9 # 2 A F S B 4 B M C K n n n n J A ; ; + W R o O O @ # @ 7 G A j $ , Z $.#.0 # ",
"A K K n D A 6 6 M M 7 + W W O + O ; # + Q o ; F #.F g : j g j j s A j < $ x J G 9 @ ; A O.O.J S K A n K B 5 - - M ; ^ Q W O O @ # # @ Q O 7 O._ c j 0 0 g g A x ",
"$. .#.#.J 6 # @ $ 4 # X U W ) $ $ $ < # Y P + O.O.O.x x 0 $ < M '  .Z $ 4 F O.O.5 @ < d #.#.#.$.$.#.#.H 0 # 4 4 < @ R P W ) 4 $ 4 2 O   . ; _ ' F x x : < ; x O.",
"#.#.#.#.[ - ; < 4 $ $ X P W + $ < 4 4 # Q P + O.+.O.x x : ; < 9 O.+.s < < A +.O.0 + @ D O.#.#.#.#.#.$.F 5 # ; 4 4 # W U Q ; > $ 4 4 @   . & ]  .F x x 7 $ < A #.",
"#.' +.+.O.A - a Z Z < O P o # $ < a a < . . o r Z w & % : 0 0 A G O.A g B A A a $ O O : r s F #.#.' #.O.B B - r A 4 o U o # < 4 M M @ . U # Z Z : & ; : 9 g A G ",
"O.#.' ' #.O.#.O._ #.S o U o # 4 7 Z O.r o . O < 4 # . . ; S J F c c F J J Z 4 4 O . . O ^ ; F #.+.#.#.+.O.G #.' O.r . Y O # < a #._ - . . O , 2 # . R 0 J O.d z ",
"#.+.$. .#.#.#.#.O. .G O U W # 4 B O. .q X . X $ 2 # .   ; n #.S x x O.#.[ M 4 4 O P U W O # d +.#.$. . .+.#.#.#.+.a o Y O < 4 Z ' _ : .   O , , O . U 0 #.#.A z ",
"+.#.O.S F c A A _  .d + U W @ $ 2 s b - o o O @ # @ o o & S J x x g a F Z - 4 4 + O O + ; ; G | O.G c F K F d _ #.s O R X # @ = w d * o o O # $ O o ^ 9 K K x x ",
"' O.* o ~ O O ; d  ._ ; O O o . o O O + & : % o X + w w M 7 B 7 5 4 # O O ; N $ a a d d G S O.#.G ; O O o o ; O. .s @ O X X X X O o ; : 0 + X o & w w - 7 7 = 2 ",
"] _ ; Y U U P o r  .S ; ^ O .   U     o x l : . Y + _ ] v = , < 4 $ O U   # $ = D  .' ' ' ' +.' G O P U Y Y o b  .A @ ~ O U     U   + r l +     *  .[ A < < N $ ",
"' b % Y P Y Y o s ' G ; W ^ . . . U   o 0 g % o . ; _ _ Z , < < < $ ~ .   # $ 4 A O. ._ #.O.' +.d + U . Y R + d  .D # ~ O       U . + l f % . . 0 _ O.M 4 < ; < ",
"d d % Y . O % ; r S x @ . X O O O . . o : 0 : % + 0 O.n q @ o + ( o @ O O O O @ ; ; : w G d S O.x o P o + + : F F g O . X O @ O   . o : 0 ; % % a _ _ 0 @ @ O + ",
"c f + P . & l x z z g o P o # $ # .   o $ 2 6 a x d O. .: . Y E U U ~ ) # o   . Y . o & z z x x : o U o : l l l l : Q P ^ < < +   . o 4 4 7 g z G  .' ; U U . P ",
"c l + P . : x g x z : ~ P ~ # 4 # X   X , 2 6 g g d ' ' f Y P Y Y U ~ ; ; o .   Y P . % z x x x f o P o : w l g x : W P o < 4 O     O $ 4 7 l r d O._ % U U P . ",
"g 0 % + + ; g g g g : O Y W # # # O o O , , , g x s s s & Q o ! O o @ < # O O X Y Y . % : 0 - r : + + % 0 g x r f ; . Y O # # @ X O O , 2 0 w x q w l ; o + O o ",
"< 0 r O.S - 4 4 4 6 $ ( Q O O R o # , 2 , , 7 l x : O o % : f f g x 5 $ 4 < # # o Y . . . o # = 7 l b w - , < 2 < ; ( ^ O . . O # , , , 2 0 x g % o o ; f f f f ",
", , S [ [ B $ 2 4 $ $ ) ^ ^ R U X # 2 2 2 2 2 x l % W P + c x c x g 7 4 4 , 4 2 O . P Y U   # < B n ] v B $ 2 2 4 < + ^ Q . U X 4 2 4 , , 0 x x + U . % l l f x ",
"; , Z ] J - 2 2 $ $ $ @ ^ W R U X ; 7 2 $ $ 7 g l % Y P O g g g x x 5 < $ < $ 2 O U Y . o o # $ = Z ] n 7 4 2 2 $ @ ~ O Q .   O 2 2 < , $ 7 x g + . . % f l f x ",
"O O ; M B 4 4 4 @ O O X W . . Y O a S - O O @ 0 7 + Q Y o + + ; < 7 O O O # < < O . o ; - * + O @ = M B $ 2 $ O ~ X . . . . . + A A & O o # 7 2 o . U o + + ; 0 ",
"U . @ , 4 4 $ $ W U U U U Y Y Y O S [ w o   . $ $ @ Y Y P P P + < < O . . O < ; O P . q ] G + P . # 2 2 2 2 # . U U U .       + _ _ - .   O $ $ O . . P P . + < ",
"P . @ 4 < < 4 # W U . P Y . . P . J  .s o   O , 4 @ . .   . . O , $ O   R @ 4 4 O . . q ] d + E . # 4 < # < # . U U P . R P Y ; O. .- . . O 2 , O         . # < ",
"Y . O @ @ @ < # O . o o O + + O ; a S - @ O @ 2 4 $ o . + ; + @ @ @ O W X ; M - : @ ; * * * o P . O # # # < # . R O O O + + + & A S ; O O # $ , # O o + % # + # ",
"Y Y Y . . O ^ ^ ) ~ + : l f x f g 4 5 < $ $ $ 2 $ 4 $ $ - b b & . . . O O - n [ ] _ b + . . . o   . R . O + ^ ^ ^ + g g l f f 0 < < 4 # $ 2 2 < < $ < A _ b + . ",
"Y Y Y P Y O ^ ( ~ ~ ) 0 l l z l g < < < < 4 $ 2 2 2 < < Z _ ' : . . X o ) q  .#. . .v + . P P P R R U U ~ ^ ^ ^ ~ # g x x x l f < < < < 2 2 , , $ 4 < A _ _ % P ",
"o o o . . O ( O ^ W + g g x l f f < ; < 4 # # 2 2 < , , 0 S S & ~ o o O # 0 S S n J d # . . o O O . . O O ) ) ! O # 0 g l l g 0 < < # < $ $ $ 4 4 , , a b d + o ",
"d w : g : : x : ^ U W < 7 < , 7 < $ $ # o O O 2 2 2 , 2 ; % O % : ; g : : ; + + j z c : # ; - s a : : : : f ; o U O ; 5 7 , < < $ $ ) Q X @ 4 4 2 , , @ o + & & ",
" .+.F c l x x g O P . # 4 $ , $ < ; , @ . . X $ 2 2 , , + P P % g x l l f +   . : z a 7 4 7 S  .O.d l l l x : o U O ; < $ < < ; < < O R Y @ 4 4 $ N $ O . . % x ",
"' O.d x l x x x O P Y < 4 < < 4 $ < $ O .   o $ , , $ , ^ . P + x l l l x + . . + q g 7 4 N S ' _ d l l x x : R I O < 4 < < < $ # @ )   . O $ 4 $ $ $ O P . : - ",
"& ; 0 0 0 0 0 , O   X - A - 4 $ # O O @ ; ; : < < ; @ O X .   + 5 - 5 0 0 ; % + % % % ; < < & & & 7 - 9 5 - $ W U O - Z B 2 2 # O O + & * ; $ 2 # @ O X   . ; - ",
". . @ 4 4 , 4 # X   o Z  .D - 4 # O . @ J O.S 4 < # . . .   . O $ 4 4 4 4 0 l f + P . @ 4 $ o   X # $ 4 4 4 # R . + S n S 4 $ # . . % n ] Z , , O     .   . # 4 ",
". . o 4 4 , 4 , o U . F ] J 7 4 # . . o J #.K 7 $ # U   U U   O 4 4 $ 4 4 0 x g O Y U @ 4 $ X U . $ $ $ 4 4 # W P + v #.K 4 4 # .   ;  . .D = , O     P   . # 4 ",
". . O # # # # # o W o : G A < @ # o o ; S O.s ; # # O O O X X @ # # $ 4 < 0 g 0 ; o O @ # @ X U . @ $ # # # O o . + a F a # # @ O o & F n - # @ # + o O . X @ # ",
". P   X X . . X O W ( # # + o o o : 0 f l z : o X # Z v 0 $ # @ X . @ $ , , 7 , 0 : & + . . Y U Y . . . X . . O ^ ~ # # + X o + : f f a x & . . & S F - $ # O . ",
"Y Y . P     U U W ^ ~ ~ ^ O . P o g x x l l & .   + n [ D 4 $ @ U U @ 4 , , < , f z x o P P Y Y Y Y U U R U . ( ~ ^ ^ ^ Q P P + g x l x x +   . *  .] M 4 $ O U ",
"Y Y . . . . . . o + + ^ ^ ^ . . o g x g l r & Y   + n [ C $ $ @ . . @ 4 4 , < < 0 l f + o Y Y Y Y . . . . . . O o ) ^ ^ ^ . . + f x g x g % . . * D n - 4 4 O Y ",
"P . ; - : : & : - a 0 O Y o % % & - 7 7 0 7 ; Y   + 9 B & O O X X O & Z Z & O o < : < # # + W U o ; a & : ; : a s : o R + % % & 7 0 7 7 7 @     # M - # O O O W ",
"Y o * ' O.d x c O.' d +   o : l g 7 < < 4 4 # R   o $ 4 @ .   X O @ - O.' ; .   # , 2 2 , $ X   O w ' O.d g x O.#.s o   + f l - , 4 4 < 2 #     O , , o U R o ~ ",
"Y . r ] _ d x c O.' w + P o 0 l g , 4 , 4 4 # R   O $ 4 @     X O o - _ _ ;   . # 4 2 2 2 # O   O Z ] _ d x d O. .s o   o f l g , $ 4 < 2 O   . @ , $ O Y Y o ^ ",
"P W & w a 0 : : n  .w +   . + ; & $ 2 , 4 4 # @ o O @ @ @ + # ; ; % * - : & ; % # O @ * Z 7 O   o : s r : : g J  .a o   o % ; 2 $ 4 $ 4 2 # O o O # @ # + % ; ; ",
"Y Y O + ) ( ( ; d ] w +   . . . O $ 2 2 2 $ 4 $ $ @ . . ; n D F l f + o o * b d # . o - ] Z O   . ^ # + ) + ; S #.r o   . . . O < 4 $ 4 2 2 $ $ O   X * G G x x ",
"P . W ^ ~ ~ ~ # d  .v o         . 4 $ 4 4 4 $ N 4 @ . . & _ ] G l x + U   : ] ] %   . w  .n + P Y Q ^ ^ ~ ~ ; J  .w X         O ) 4 , , , , 2 2 O     :  . .F x ",
". . O ) ( O ~ O q b w + . . . . O @ ; 4 4 7 6 $ 4 + Y Y ; b _ d w x % . X * S Z + o X - n A # . Q O @ ) W ~ # s w - O . . . . O # 4 4 = 7 , 2 $ O . . : _ _ a g ",
"# @ $ $ # O R X o + o # @ # @ # @ O X # A K Z 4 < @ Y U + l d l - , , @ # + + + O # + = 6 6 $ # # @ < @ Q R X O + + # @ @ @ $ @ O O ; n v M 2 $ O   . & F d 0 5 ",
"< 4 4 4 $ O U R     . # 2 2 N , # . U + J O.G 4 4 @ . P + f l 0 2 2 2 , $ O     + # ; $ 4 4 $ 4 4 < 4 $ X U U U . o * $ $ N $ # R U # _ n Z 2 , O . . ; g x 5 < "
};
