/* XPM */
static char *_5a152378c094481ae650c95dc17d14dv9l97KLsmnhFBcWO[] = {
/* columns rows colors chars-per-pixel */
"80 80 162 2 ",
"   c #2F252E",
".  c #312730",
"X  c #352B34",
"o  c #382E37",
"O  c #392F38",
"+  c #373037",
"@  c #3A3037",
"#  c #373138",
"$  c #3C333B",
"%  c #40363F",
"&  c #42383F",
"*  c #3F3542",
"=  c #413742",
"-  c #443B44",
";  c #483E46",
":  c #463C49",
">  c #493E49",
",  c #474045",
"<  c #4A4146",
"1  c #474048",
"2  c #4C424B",
"3  c #50464D",
"4  c #52494E",
"5  c #4E4550",
"6  c #514651",
"7  c #554B54",
"8  c #584E56",
"9  c #574D58",
"0  c #594E59",
"q  c #5B5157",
"w  c #5D535B",
"e  c #60575D",
"r  c #63595E",
"t  c #5C5560",
"y  c #615761",
"u  c #655B63",
"i  c #685F64",
"p  c #665E69",
"a  c #685E69",
"s  c #6A6165",
"d  c #666069",
"f  c #6D636B",
"g  c #6F686E",
"h  c #71676D",
"j  c #736A6E",
"k  c #6D6671",
"l  c #6F6873",
"z  c #706771",
"x  c #756B72",
"c  c #796E74",
"v  c #756D79",
"b  c #796F78",
"n  c #777175",
"m  c #7B7176",
"M  c #777078",
"N  c #7D747A",
"B  c #7E787C",
"V  c #807677",
"C  c #81767C",
"Z  c #837A7D",
"A  c #887F7F",
"S  c #7F7680",
"D  c #817780",
"F  c #857C82",
"G  c #887F83",
"H  c #878185",
"J  c #8B8285",
"K  c #8D858A",
"L  c #8F898D",
"P  c #908787",
"I  c #918987",
"U  c #90878B",
"Y  c #938A8D",
"T  c #988F8F",
"R  c #8F8890",
"E  c #958D92",
"W  c #988F94",
"Q  c #9A8F98",
"!  c #969095",
"~  c #9A9195",
"^  c #9D9499",
"/  c #9F999D",
"(  c #A0979B",
")  c #A0979C",
"_  c #A1979E",
"`  c #A0979C",
"'  c #A1989B",
"]  c #A1989D",
"[  c #A2999D",
"{  c #A2999D",
"}  c #A19B9D",
"|  c #A2999E",
" . c #A19A9E",
".. c #A49A9D",
"X. c #A39C9E",
"o. c #A49C9F",
"O. c #A29A9D",
"+. c #A19BA0",
"@. c #A39CA0",
"#. c #A69DA1",
"$. c #A59FA1",
"%. c #A49EA2",
"&. c #A69EA2",
"*. c #A49CA1",
"=. c #A89FA1",
"-. c #A89FA2",
";. c #A89FA4",
":. c #A7A0A1",
">. c #A7A0A3",
",. c #A7A1A3",
"<. c #A6A0A4",
"1. c #A7A1A5",
"2. c #A7A1A6",
"3. c #A6A0A2",
"4. c #A8A1A4",
"5. c #A9A1A4",
"6. c #AAA1A5",
"7. c #A9A2A5",
"8. c #A9A3A5",
"9. c #ABA2A5",
"0. c #A9A1A6",
"q. c #A9A3A6",
"w. c #A9A3A7",
"e. c #A9A2A6",
"r. c #AAA3A7",
"t. c #ABA3A7",
"y. c #ACA3A4",
"u. c #AAA4A6",
"i. c #ABA4A7",
"p. c #AEA5A6",
"a. c #AFA6A7",
"s. c #A9A2A5",
"d. c #ABA3A8",
"f. c #ABA4A8",
"g. c #ABA4A9",
"h. c #ACA4A8",
"j. c #ADA4A9",
"k. c #ACA7A9",
"l. c #ADA7A9",
"z. c #AFA7A9",
"x. c #ACA5AA",
"c. c #AFA5AB",
"v. c #ACA6AA",
"b. c #ADA7AB",
"n. c #ACA4A9",
"m. c #AFA9AB",
"M. c #B0A7AD",
"N. c #B0AAAD",
"B. c #B2ABAD",
"V. c #B0A8AE",
"C. c #B2ABAE",
"Z. c #B3ACAF",
"A. c #B1AAAD",
"S. c #B3ADB1",
"D. c #B6AFB5",
"F. c #B5ACB2",
"G. c #B8AFB4",
"H. c #B6B1B3",
"J. c #B8B0B6",
"K. c #B9B2B6",
"L. c #BCB5BA",
"P. c #C5BCC0",
/* pixels */
"h f j N F H K H G H Y E ` +.&.2.;.2.d.4.q.q.f.2.&.X.X./ ^ L K Y F : X m ~ A H L K J U W W E ~ ^ ^ ! Y J E ! ! ! K Y ^ 3 r B B N C c c G Z N x x j s h h < < m h ",
"~ ^  .>.y.:.@.f.&. .' o...4.f.f.b.n.f.f.q.4.4.4.4.2.>.>.>.^ f.S.! 6 - F ^ f.:.y.p.y.M.a.N.N.N.J.D.S.d. .2.k.8.X.f.! B , s 2.N.b.p.=.o.N.m.4. .X.4.^ ~ Z < q ^ T ",
"T ! T ! ( ^ ^ ^  .' ( ~ T T W ~ ^ ~ W ^ ^ ~ ~ ~ ~ ~ ~ ^ ^ ! E ! u q & c j W ( ( ` W W W ~ ~ ! (  .^ ^ W ~ X./ / @.m q $ 7 J +.^ ~ ~ W ` ^ ~ W W } T J i 2 6 F P ",
"Y ! T I P ( ~ T ! ~ ~ ~ ! T ! ^ ^ ^ ^ ~ ^ ^ ^ ^ ~ W ! ! ! ! E ^ h r $ j J W ! ~ ^ ^ ^ W ~ ~ ~ ~ ` ` ^ W ~ ~ ~ ^ / J r $ < F ;.&.( ~ W ..^ ~ ~ ~ ~ ~ I s < 7 C I ",
"I T I J I ! T I J P L L P P Y W ~ ^ ^ ~ ^ ^ ^ Q W W E W W W E / h w $ x Y ^ ^ ^ ` ~ W E W W ! ! W E W W W I I ! ^ J r - - j } ^ E E R W Q Q W E ! ~ Y i < 4 m J ",
"J J A Z J J J Z A m m Z G J K Y W ~ ~ W W W E W W E E E W W E / i 0 O z I _ ^ ( ^ W E K J G J F N F D D L J A J L A i 3 - c T ! E G D D K E W E ! ( Y i ; 4 V J ",
"J I J A Z V A J N x x x j c Z J F J Z x x N N J L U E W W E E ^ i 7 $ z D ^ ( ` Q E G x x c x j x D M C E K J H T A s 7 - V ( ~ R F D N D W Q ^ ~ { J s > 7 Z P ",
"J J A m N n n Z m f j j j x j Z A A m x x m c C C G E E W E E ^ h 4 $ c N W ^ ^ W E N u z b M x x b N L L J H H T K r 4 , Z ' ' E K N M Z U Q W W ~ P i 2 7 Z T ",
"A m j j M N N J J M c x m m x n Z V m c c N b N N N K E W E I ^ i 7 % c N / ^ E ! Y M g c v N D Z Z H ! Y J Z H L Z q 4 , A } ~ T J j M F W W ^ W W I r > 8 m L ",
"Z j f h x b M N K C M x x x N m N N n x x N N N N C D K Y P J ^ r 4 % m B +.^ Y K F N b x c N J K J H ! ! L H H K H s q $ n } ~ T N f N K W W E W T W r 2 w V K ",
"V V h h z x x c D D N m N C C N N c h z z z b m m m V G L K J ^ s 2 @ V F / +.W K C x N B M S F Z K Z J ! L H L Y Z i q & c I ~ T F c N U W W Y I U W i 2 r D K ",
"A Z n j x m m n m M Z F F D C M b c z h h h c c m m N G J J J ( s ; = V G ~  .! G C M b B S H B H H K H L L R H Y Z w 4 < m I T T J V B K Q Q E P P I a 2 e G K ",
"A A A F Z Z F F n j x N N C m c v k z z z x c c c v b N V F G ^ j ; % V F / K W J D S K H B H F H H L H L R R L I V q ; 4 V J T Y G N V Z P W P L P E f < 7 J E ",
"J H F J A Z A J G D S F D F F J G D D D D D F G G J L ~ Q Q W ( s < % N H ^ G K H F H H H H Z H H H L L R ! ! ! +.A 4 - & N :.' W G A J Y E P D G J Y h > 4 C G ",
"W W ^ ^ ~ ( ~ ^ Y K J F D D D D G R F N b c b b M v N Z F D G G j ; % N L ^ Y ^ ^ ! E ! ! ! / / / / ! E R L H S K K g % $ c j s K E K J D C U ( ^ W ^ f 2 ; N G ",
"7 7 8 q q 7 2 2 < : - - = = = * * * * * * * * * * * * * = = = > h 7 O D A w s g k g k k g p t t 9 5 1 * : * * - : < M < + 7 : - * : : = = - 2 7 7 3 r G q - f s ",
"4 4 6 4 4 4 2 4 6 4 4 4 4 4 4 2 6 2 6 > > 2 > 2 > > > > > : - = : 5 O w - & - : - - - - & - : : 1 1 2 5 4 4 2 2 6 2 4 : O : < 3 2 2 4 3 3 3 2 > < 2 - ; : - 4 2 ",
"- & % * % $ O O O O O O O @ $ $ = % O O O O O O O * = O O O O * O # * X $ = % * $ $ = * @ O $ O # # + $ + + $ $ O X X   . X . . X X $ @ + + O O o O . . X $ $ % ",
"8 8 w w w y p p p u u a f h x e O ; f c b D G G G G K U R E E U K G F S z g a a a u p t u u u u u t y w w t 1 . q y 0 w 0 7 0 0 0 w w w w w 0 0 0 0 w 0 9 6 2 2 ",
"Y W ^ ` &.&.M.F.L.L.L.L.L.G.#.z = 3 G R ^ _ +.+._ +.+. .;.;.#.#.%.%.;.;.#.#.#.#.+._ Q ^ / ^ ^ ^ ^ ! ! ^ ! m 8 $ D #.G.F.N.k.n.4.=.4.k.:.4.k.=. .W Y ~ ( ^ W E E ",
"E ^ ^ ^ `  . . .` #.&.&.( ^ j r % 6 G P Q Q Q Q W Q W W W W W W Q W ^ ^ ( ..&.:.2.4.&.>.;.&... .@.@./ ^ F w q $ y H  .@.4.2.f.8.=.#.&.>.;.;.*.+.~ ~ ^ W W W ~ W ",
"W W W W ~ ^ ^ ^ ^ ~ ^ W T I j r O 7 G E ^ Q Q Q ~ ~ W ~ ~ ~ ~ W Q Q ! Y T W W ! ~ ~ W Y W W W Y Y !  .q.A w w X w E @.<.;.@.@.@..... . .+.+.+.*.( ~ W ^ Q W ^ ~ ",
"^ W ~ ^ ~ Q ~ ^ ^ ^ ^ ( ~ ~ h r @ 7 Z J Q ~ Q W W ~ ~ ~ ( ~ ~ W W ~ ~ T Y Y Y T W T W L P U K L K J Y k.A w w X 7 Y >.@.~ ~ ! ! G U Q Q Q Q Q _ ( W W ^ ^ W ~ Q ",
"Q W W ~ ~ E E E ~ ^ ^ ( ^ ^ j r % w C Z Y Y T ~ ~ W ( ( ( W ( ~ T Y W W W Y I Y T ( ! W U U P J L J J 4.K r w X 7 J >.&.^ ^ W L F C U R R Q Q G P K U W W ^ ~ W ",
"W W E R G G G G _ Q Q _ ~ ( j e $ q G J W E Y ! ( T T T ( T W ( ~ ~ T I P J Y Y ~ ^ ~ ~ I I A A J A Z ' A u r X 6 J 3.X.^ ` E N x z C G G G G G C C C J E Q W E ",
"U U R U F C G G Q Q Q _ ~ ~ h e @ 6 F C W W T Y ~ I Y T W ~ W W ^ ^ ( P A J T I Y I ~ T J P G G J A Z ! V u w X 4 J X.>./ ^ E D b z b C C D D D c C m J Y E E E ",
"Y U U G D D C G G Q Q ^ ( W h i $ 2 G D W W E P ~ T T T ~ ( W Y Y ~ ^ ~ P Y W Y Y W W U P J A A J A V T n r w O 2 K >.} E W G F S v F F F G G S c C c G Y E K U ",
"R R G b x V b x D G U Q ( W s i = 5 G K W P G C ( Y T ! T T T Y J Y ! ! ~ ~ ~ Y Y W Y K P G G G F A J I j r q O 2 L 2.X.W W D S F F G U U G D D x C N D P U K U ",
"U G x f a a y a z C G Y Q Q i r @ 3 D L W D c c Z J G E ^ ~ Q W E T Y W ~ ( T Y P E U U J G G G F J A W x r w + 2 Y 4. .W E C N C G P U K J D b h C C C L E L U ",
"G D x h j i y a z b C U U Y j f % - N F E x a z x m b b D P E Y G L E E T ~ ~ W Y P U E J G F G F F A ! m u w X 7 W 4.^ W E J F Z G U E Y E E C z C G G Y W K P ",
"D b z a z i y a f x x Z U Y C h ; ; N Z D u y f j c N x i e u f x c V F Z N G U L G K L G Z V Z Z Z V T V y 8 + 7 L &.~ E K K G F G G U U Y E G C G G U W Y J J ",
"G D b F G F V j C b D G U Y C i ; ; V C G z h c c x f c x h h z c J Y J D N N L E W ^ ~ W U L L Y Y Y Y m r 7 + y J &.W ^ W ^ ~ T E Y E ` #.#.Y U E E Q ~  .^ E ",
"c c C C b h y y u a y u f z c a : $ u g d y q 6 5 : - : 6 9 w w 0 r a e 0 w u f z x x z h f h x c m m u 4 u 4 + h D V f p y a z c m k a u y 9 5 > 2 7 w w p g s ",
"& % - - - = - = - > > : : > < z w X 6 2 : : : : > 2 2 < : : : : : : > > > > - - : = = - = : = : : : ; ; 2 y 7 $ x w % ; ; > ; ; - - - : - > 2 < > > : : - - = : ",
"2 2 > 2 > > : > > > > > > > : 2 < . : , $ $ $ * * * $ : - = = % $ % $ O O O O O = = = * = $ $ * $ $ @ $ # * $ X % $ = % & - ; - - ; : : ; : ; < < < 2 < < < < < ",
"% % % O % O O O $ $ $ O $ $ O O # $ $ & $ - - : > > : $ O : > 2 6 6 7 7 7 0 7 6 = + O 5 7 5 5 2 5 > > 2 2 2 > 2 ; ; ; : ; - & % % % O * $ O + + # $ $ $ $ * * * ",
"c b b C b b S S b b S b b C b v M N M N M B N S N S g * * J +.R K K K R R E Q Q 2 X p D S S S D N S B S S S D F F G G D C N N v v x z k k a u u d : * y k g f k ",
"U R Q +.+.*.;.;.;.n.;.&.+.#.;.;.2.@.*._ ~ ! R K R F r $ $ C k.P.L.K.K.L.D.n.F.N O $ c ^ E E ^ ../ +.@.+.+.+.@.@.%.@.%.&.&.@.*.^ W E K G G F F L f - $ G ^ ! ^ ^ ",
"G U R Q W ^ ^ ` ^ ^ ^ Q ( ( ` ( ^ ^ ^ +.^ ! ~ T Y s y - $ c N o.x.4.d.2.%._ R 9 @ ; C D ^ ^ ` +.+.&.&.&.&.>.@.o.2.2.=.o. .&.%.+.` W W Q Q W ^ m w - - B W ^ / T ",
"G Y R Y W W Q W ^ ^ Q Q ~ Q Q Q E E E W T P T J J s w : X j B K  .K K H J G Z u % : D D W +.` `  .+.#...^ ..} !  .&...{ ` ` ` ^ ^ ^ ^ _ +.;.J w u ; - V ! ~  .Y ",
"U G Q E Q W ~ ~ Q Q Q Q Q W ~ ( Q E W W Q E W E T j e ; . i N J ^ N Z D Z G G i - % x F E ;.` ( { { ( ~ W ( ( ( ^ } ( ( ( ( ~ ~ W E W Y ! +.J u u 2 = N ( ' o.~ ",
"F G G Y E W Q ( Q R E T E Q ~ Q ^ W E Q ( W W Y T j e ; . r N Y Y m c x c F Z r - % z D G ;.`  .( U Z G Z P P Y T Y W W T Y I Y Y P K Z G W W s r 2 = N ~ ....~ ",
"F U U Y U Y E G C C b z b C G U K K K Q ( ( ~ ! Y j q < . u Z W P c h j c Z V r - % j F G .. .( G C V C c G J A I T I Y T P L J L J K J F L W f u 4 $ c W ..( ^ ",
"P G G U K J P Z x x x h h z N D K U U R ( ( ' ( ! c e & O y V W W m j N C G D i : % j F m ^ ..T C V Z C C P J J E ~ W Y Y J C Z L J F Z N G Y f u 4 $ c P T } ~ ",
"J J J P G A A J C C j c x c b V G Y W T E Q ~ T Y j r & X e C ~ W C C C V C Z i - @ x D b ( ( Y G V G G K P W T U Y T I J G c c D F Z M N H T f r 3 & m T Y } ( ",
"P J J A J G A C P G D C x x c V C J E ! U Y Y T J e e & X w C ^ Y m c C V Z G r % % x C V ( } J C V D G P ^ Q ~ T G Z c G G V j c M m m m V Y f i < : Z W P T ^ ",
"J J J m Z P Z Z Z A U G C c c V P P P P Y W W ..L e w % X y C ! W V m F G G G i % % x V Z ^ ^ A Z C m V P ~ Y T W Q P x K K V c m M N V A A Y u u ; ; G W J J A ",
"U L J G Z P Z P G Z Z Z G U Z C G U P A J P G ` T s w - X y C W ~ Z V Z C U P i - O c C D o.~ J Z Z D Z J ~ P I Y ( Y C C G C V N Z H J A J T u s > > G W Z A A ",
"G P K L J I J I J V m m m A Z B V G U J P P G Y J h e & X y N ~ ^ G G G J J J u = $ c C P =.Q T P A Z V Z U Y T U ( Y P V V Z Z G J J G A J P e a < : F ~ H J J ",
"G J J F J A Z A Z m j V Z A Z Z V m Z J A J P T J h r & X e N ~ ` P P P I J A r % @ c D F { T P J G G Z Z J T G J T E Y J C V Z G G J A J J P r i ; 2 D ^ F A J ",
"A J G Z Z Z V Z V c m m m Z A Z Z V C P Z A Y W I j r - X y N W ~ G P K J F J i - @ c G U ..T U J A G Z Z A P F G P U J P A A Z G A K G J Y L r i 2 2 D W A A K ",
"A J J J Z Z V N c m m m c B F Z Z C F G G G T T W V f & X e N T T G Y G Z I J s : - c C F #.( ( W W T Y U G U J V D D J J J A A Z V P P J P P a s 2 2 G T A Z J ",
"Z G L J G G A c n A Z Z D Z F J G F G Y Y G Y R ~ V h & o i m Y ! J P Z Z P J i ; - N c x ( T ( } ' ( { ( ( ^ ^ W E W Q ~ ~ T T T J Q E J J J s r ; 2 D ~ G V F ",
"P P Y K J V Z Z Z F N Z x j Z L U Y Y ( Q P E Y ( A i - o f Z W y.~ T J J T P a ; ; c P ;.C.p.o.~ Y T ^ ( Q ^ ` #.....+...{ ( ~ ( } p.;.~ ! } M r : : C ^ Y J T ",
"u e e q 7 2 2 2 3 < > 2 ; : 2 q 0 8 8 4 2 ; 6 6 e e r - o h V h N F Y J Z A Z r ; > G Y C x a w < - ; 3 2 2 6 6 7 7 9 9 0 0 8 6 8 6 7 y s a p N f % & D W V N N ",
"4 2 4 4 4 6 6 ; ; > > 2 2 > : > : : - : > : > : > 3 7 & ; 0 : - : > 6 7 2 < < 3 - 4 m 3 > > - : ; > > > ; ; > : : : > > > > > > > < > : ; : : 2 j - $ Z w - < ; ",
"& - - @ $ $ $ = % $ = $ = * * = = = = = * = = = - * % O @ $ - - = : : : : - - & O % - % - & = = $ $ $ * $ - $ * O % * $ $ $ * $ * $ $ $ $ $ $ # X X X . o $ = = ",
"O O O 9 d y w w y y t t w w w 0 9 9 7 6 6 6 6 9 7 7 2 > 0 7 - & : - : : - - - - : > : - - - : > 2 2 , $ - * : 2 2 > > : * : : , - : : : , < 5 5 7 9 7 9 7 > = O ",
"a $ 4 ^ Z.k. . .+.+.` ^ _ _ +.+.+.&.+.#.+.+.+.*.+.+.Q ..&.b 7 & n K K U U R Y E E R E R Y R U G R J w # g E G H K K G K R R E E ! Q W Q ~ ! ^ Q ^ ! W Q W Q U F ",
"z $ 8 N W H.N.m.M.N.M.n.;.;.+.&.#.;.;.n.c.c.;.M.n.;.Z.L.D i 7 o n ^ =.` +.#.#.+.;.;.;.b.;.c.;.+.^ g w $ k E 2.K E E Q Q ^ ^ ^ ^ Q ^ ^ ! ! ! Q Q E E E R K U Q E ",
"z - u D Z 2.:.>.3.&.&.#.+.^ Q ^ T W T Y E Y E T E Y U C e e 0 o j F Q Y W Q Q E ^ W W W ~ ^ ~ W Z w r $ g c Y o.&.:.4.2.<.+.@.3.o.&.&.&.` ..+.+.+.%.+.+.W ~ #.C ",
"v > p G J :.>.>.>.&.#...+.+.` _ ( ( W ( ^ ~ W ~ W W E N i r 0 o h Z T E E E E R U U K G G F F J N r w $ j c L >.! W ~ ~ ! R L ! W W ~ W Q T R U L K L U J K P b ",
"v > t G L >.&.:.X.^ ~ ( ^ ~ ^ Q ~ ~ ( ~ W ~ ~ ^ ~ W Y x r u 0 o a Z Y Q E Q Q E W Y E L F G F F N r w @ h j P :.~ ~ ~ ^ ~ ^ ^ ! W W W Q E E W W K K D G G U U D ",
"v : u G J o.>.o.W L Y Y Y E Y Y Y Y Y Y I ! W ( ^ W G j r r 0 o i C Y E E Q R U P D D C m m C K Z u q $ c c D ..T ( ^ W ^ ~ ^ ^ W ^ E Y Y E E E K J F G G Y Y S ",
"k $ u D G X.&. .G D G E E G R Y E E U Y Y Q W ( Q W U x e r e o y C Y ^ E R G D b C C b V x V G G i 7 % j x x ` W ( ~ Q ( Q ^ ~ ~ W U K U K U U K G F G G Y E C ",
"k X f D G o.o.! G D G G G G G G F F A U Y P T ( ( ~ T j e r 7 o w N W ^ Y R G G b b C C C C C Z F i 7 X j V j ( W Q ( W ( W ~ Q E U J K G K K K K G G G G U E C ",
"d # k C G ..} W G D Z G G G G G G G C G T U P T W W W V r r 8 o 0 N K W Y R U G G D C G F G G V V r q % x x j ..T ( ~ ~ W ~ W Y K D G G G J G G G F G G G G E D ",
"d # z C F ..( E G C C Z G G G C C P A Z Z G Y ( W T ~ Z r i 8 . e D K U K U G C D G G G Y P A G C i q X c c G ( U W Q W W ~ Y C C C Z F F D D D D D G G G U U S ",
"u X c N D ^ ~ K F C b j c c G Z G G Z Z Z Z P W ~ T W J r u q . y F Y U G J C m V C F G U T G I A r 8 X j V Y Y Y ~ ~ Q Q Q G b x C V b V C C D Z F G U G Y E D ",
"d X h N G ~ E G C x h a h x V Z P U G Z Z A G U ~ T Y J e u e . u C Y W U J C V C x V G G Y G A G i q o x b F T G W W Q Y U F c x x C V b V C C Z F F G U U E D ",
"p X f m D W U D x a i a i x x x c F Y U A A A T T P A G s r e . i C K Q U G Z V C V F F Y Y G G G s q % c c F ( G E Y Y P Z V b C V b V V c V c D C C F G R Y b ",
"u X f Z D W K N a r h s r h a f V C C J G G C G P J J V r u e . f N G E K G G G G C C G G U G Z Z f 0 % c c G ( T Y U P G C V V C z V b x b V C C c C C Z G U C ",
"p X d D G E G N h u a f u u u f z C C V G F Z F Z G A A e r 7 O x C ~ U J D Z D K J G P Z G P Z A h e o x m K ` Y W P J Z Z V c x z V V x x V V V x C C V Z G b ",
"p X s Z G P F N x f f j p a x h h c F C V V V F Z G K G r e 8 @ c D ..P A Z F Z G P J J A P A J Z s e o x N K &.Y Y Y J Z A Z c V V V D V j h V x V V C Z G U C ",
"z O g N K J D C c x c N v z h h x C F G C c C G G Z G V r e q $ z G #.Y J Z Z Z Z G P J P J A A Z r q @ c N J =.P G D J Z Z Z Z V C D G C V h h x D D G C V Z x ",
"k @ z N G Y G U P U Z x G V V A G G G Y P Z G P P P J W f q q % z F p...~ Y J J Z Z A J A W T T I r q % x V W A.o.Y P Y Y Y P J C G E E A A V x V C V V j V G V ",
"d $ z D L F C N N v c f N N C D C C D C C C G G Z j h Z j q 8 % c E D D J D V C A A J Y Z h e q A h 7 o h J J c V D F J L L J D V C G G F C x V Z V V A G A C h ",
"v % x D e > = - = = : : : : ; ; : - > > 3 > 3 4 2 ; ; ; 2 e 4 o z 0 * - : > 2 3 7 4 < 3 2 < < < 3 j q X z c : - ; : : > : : - - = = - ; > > & ; > > 4 q e r s V ",
"w > 7 6 = > 2 3 2 2 2 > > 2 > > > > > 3 > > > < 2 ; ; ; & < 2 o - - > > 2 > > ; < > ; & & 2 ; > ; 3 4 o 9 > > 4 < 3 4 4 3 2 3 3 > ; > 4 4 > ; ; > ; ; ; & % & & ",
"@ $ O O O @ @ @ $ = = % : = - % % % % = - - & % % o o % o X X X o O O O $ $ % @ % @ o @ o X X o @ @ o @ O O @ @ O @ @ % @ @ % @ = % % % % - % % - - & ; % % % % "
};
